<svg width="40" height="40" viewBox="0 0 40 40" fill="none" xmlns="http://www.w3.org/2000/svg">
<rect x="0.65" y="0.65" width="38.7" height="38.7" rx="19.35" stroke="#6C6C6C" stroke-width="1.3"/>
<path d="M24.1862 15.2325C23.3387 15.2325 22.7112 15.4462 22.22 15.7162C22.1412 15.4362 21.8825 15.2312 21.5775 15.2925H17.8475C17.4788 15.2312 17.18 15.53 17.2938 15.9175V29.6675C17.18 30.0175 17.4788 30.3175 17.8475 30.2925H21.5775C21.9462 30.3175 22.245 30.0175 22.245 29.6488L22.2438 21.3388C22.2425 21.335 22.2288 20.9375 22.48 20.6638C22.6812 20.4463 23.0275 20.335 23.5063 20.335C24.3038 20.335 24.6588 20.6613 24.7913 21.3913V29.6488C24.66 30.0175 24.9587 30.3175 25.3275 30.2925H29.2588C29.6275 30.3175 29.9263 30.0175 29.7938 29.6488V21.1138C29.925 16.7738 26.8337 15.2325 24.1862 15.2325ZM28.59 29.0425H25.995V21.3913C25.995 19.915 25.0413 19 23.5075 19C22.64 19 21.965 19.255 21.5 19.7575C20.8537 20.4575 20.9038 21.345 21.0425 21.5425V29.0425H18.515V16.5675H20.91V16.9875C20.909 17.1126 20.9434 17.2355 21.0091 17.3419C21.0748 17.4484 21.1692 17.5342 21.2815 17.5894C21.3937 17.6446 21.5193 17.6671 21.6438 17.6541C21.7682 17.6412 21.8865 17.5934 21.985 17.5163L22.16 17.3812C22.6662 16.9825 23.19 16.5687 24.1875 16.5687C25.22 16.5687 28.5912 16.8975 28.5912 21.115L28.59 29.0425ZM13.5425 9C12.14 9 11 10.14 11 11.5425C11 12.945 12.14 14.085 13.5425 14.085C14.945 14.085 16.085 12.945 16.085 11.5425C16.085 10.14 14.945 9 13.5425 9ZM13.5425 12.75C12.8775 12.75 12.335 12.2075 12.335 11.5425C12.335 10.8775 12.8775 10.335 13.5425 10.335C14.2075 10.335 14.75 10.8775 14.75 11.5425C14.75 12.2075 14.2075 12.75 13.5425 12.75ZM15.3275 15.2313H11.6175C11.2488 15.2313 10.95 15.53 11.0425 15.9175V29.6675C10.95 30.0175 11.2488 30.3175 11.6175 30.2925H15.3275C15.6963 30.3175 15.995 30.0175 15.995 29.6488V15.8987C15.995 15.7217 15.9247 15.5519 15.7995 15.4268C15.6743 15.3016 15.5045 15.2313 15.3275 15.2313ZM14.7925 29.0425H12.285V16.5675H14.7925V29.0425Z" fill="#6C6C6C"/>
</svg>
