<svg width="40" height="40" viewBox="0 0 40 40" fill="none" xmlns="http://www.w3.org/2000/svg">
<rect x="0.65" y="0.65" width="38.7" height="38.7" rx="19.35" stroke="#6C6C6C" stroke-width="1.3"/>
<path d="M27.6931 30H27.5624C12.4526 29.1308 10.3072 16.3769 10.0073 12.4846C9.98316 12.182 10.0189 11.8776 10.1126 11.5888C10.2062 11.3 10.3559 11.0325 10.5531 10.8017C10.7502 10.5709 10.991 10.3813 11.2615 10.2437C11.532 10.1061 11.827 10.0233 12.1296 10H16.3665C16.6745 9.9997 16.9755 10.0919 17.2305 10.2647C17.4855 10.4375 17.6828 10.683 17.7968 10.9692L18.9656 13.8462C19.0781 14.1258 19.106 14.4324 19.0459 14.7278C18.9857 15.0232 18.8401 15.2944 18.6272 15.5077L16.9894 17.1615C17.2452 18.616 17.9415 19.9567 18.9839 21.0023C20.0264 22.0479 21.3648 22.7479 22.818 23.0077L24.4866 21.3538C24.7031 21.1432 24.9767 21.001 25.2735 20.9449C25.5702 20.8888 25.8769 20.9213 26.1552 21.0385L29.0542 22.2C29.336 22.3176 29.5764 22.5165 29.7449 22.7713C29.9133 23.0261 30.0021 23.3253 30 23.6308V27.6923C30 28.3043 29.7569 28.8913 29.3243 29.3241C28.8917 29.7569 28.3049 30 27.6931 30ZM12.3142 11.5385C12.1102 11.5385 11.9146 11.6195 11.7704 11.7638C11.6262 11.908 11.5452 12.1037 11.5452 12.3077V12.3692C11.8989 16.9231 14.1673 27.6923 27.647 28.4615C27.748 28.4678 27.8493 28.454 27.945 28.421C28.0406 28.388 28.1289 28.3365 28.2046 28.2693C28.2803 28.2021 28.3421 28.1207 28.3862 28.0296C28.4304 27.9385 28.4562 27.8395 28.4621 27.7385V23.6308L25.5631 22.4692L23.3563 24.6615L22.9872 24.6154C16.2973 23.7769 15.39 17.0846 15.39 17.0154L15.3438 16.6462L17.5276 14.4385L16.3742 11.5385H12.3142Z" fill="#6C6C6C"/>
</svg>
