<svg width="114" height="16" viewBox="0 0 114 16" fill="none" xmlns="http://www.w3.org/2000/svg">
<path d="M3.62109 3.71289V8.20508H6.16016C7.64453 8.20508 8.51367 7.35547 8.51367 5.95898C8.51367 4.5918 7.5957 3.71289 6.13086 3.71289H3.62109ZM3.62109 10.3438V15.5H0.671875V1.4082H6.44336C9.68555 1.4082 11.541 3.11719 11.541 5.90039C11.541 7.70703 10.6035 9.26953 8.98242 9.9043L11.9512 15.5H8.61133L5.98438 10.3438H3.62109ZM17.8398 6.91602C16.5898 6.91602 15.6914 7.86328 15.5938 9.17188H20.0371C19.9785 7.83398 19.1094 6.91602 17.8398 6.91602ZM20.0762 12.2969H22.6934C22.3809 14.3477 20.5059 15.7246 17.918 15.7246C14.6953 15.7246 12.7617 13.6641 12.7617 10.3145C12.7617 6.97461 14.7148 4.80664 17.8105 4.80664C20.8574 4.80664 22.7812 6.86719 22.7812 10.0508V10.9199H15.5645V11.0957C15.5645 12.5898 16.5117 13.6152 17.9668 13.6152C19.0117 13.6152 19.8125 13.0977 20.0762 12.2969ZM28.2988 13.6055C29.5391 13.6055 30.5645 12.7949 30.5645 11.6621V10.9004L28.3574 11.0371C27.293 11.1152 26.6875 11.5938 26.6875 12.3359C26.6875 13.1172 27.332 13.6055 28.2988 13.6055ZM27.3613 15.666C25.3691 15.666 23.8555 14.377 23.8555 12.4922C23.8555 10.5879 25.3203 9.48438 27.9277 9.32812L30.5645 9.17188V8.47852C30.5645 7.50195 29.8809 6.93555 28.8066 6.93555C27.7422 6.93555 27.0684 7.46289 26.9316 8.23438H24.3242C24.4316 6.20312 26.1602 4.80664 28.9336 4.80664C31.6191 4.80664 33.3672 6.19336 33.3672 8.30273V15.5H30.6133V13.8984H30.5547C29.9688 15.0117 28.6699 15.666 27.3613 15.666ZM35.2812 15.5V1.4082H38.1328V15.5H35.2812ZM39.7734 11.4863H42.6152C42.752 12.6484 43.9629 13.4102 45.5254 13.4102C47.0977 13.4102 48.1719 12.6582 48.1719 11.623C48.1719 10.7051 47.498 10.1973 45.7988 9.81641L43.9629 9.41602C41.3652 8.85938 40.0859 7.54102 40.0859 5.48047C40.0859 2.88281 42.332 1.16406 45.4766 1.16406C48.7578 1.16406 50.8184 2.85352 50.8672 5.40234H48.1035C48.0059 4.21094 46.9609 3.48828 45.4863 3.48828C44.0312 3.48828 43.0547 4.18164 43.0547 5.22656C43.0547 6.0957 43.7383 6.58398 45.3594 6.95508L47.0684 7.31641C49.8906 7.92188 51.1211 9.13281 51.1211 11.2812C51.1211 14.0156 48.9043 15.7441 45.4082 15.7441C42.0195 15.7441 39.8613 14.1328 39.7734 11.4863ZM57.498 15.7246C54.334 15.7246 52.3125 13.6934 52.3125 10.2559C52.3125 6.86719 54.3633 4.80664 57.498 4.80664C60.6328 4.80664 62.6836 6.85742 62.6836 10.2559C62.6836 13.7031 60.6621 15.7246 57.498 15.7246ZM57.498 13.5469C58.8945 13.5469 59.7832 12.3652 59.7832 10.2656C59.7832 8.18555 58.8848 6.98438 57.498 6.98438C56.1113 6.98438 55.2031 8.18555 55.2031 10.2656C55.2031 12.3652 56.0918 13.5469 57.498 13.5469ZM64.9199 15.5V7.17969H63.4941V5.08008H64.9199V4.28906C64.9199 2.23828 65.8867 1.28125 68.3672 1.28125C68.8945 1.28125 69.4902 1.33984 69.8223 1.4082V3.29297C69.6172 3.25391 69.334 3.23438 69.0508 3.23438C68.1133 3.23438 67.7031 3.64453 67.7031 4.38672V5.08008H69.7832V7.17969H67.7715V15.5H64.9199ZM72.0488 2.61914H74.9004V5.03125H76.834V7.17969H74.9004V12.1895C74.9004 12.9902 75.291 13.3711 76.1309 13.3711C76.3848 13.3711 76.6484 13.3516 76.8242 13.3223V15.4219C76.5312 15.4902 76.043 15.5391 75.4668 15.5391C73.0059 15.5391 72.0488 14.7188 72.0488 12.6777V7.17969H70.5742V5.03125H72.0488V2.61914ZM82.4102 15.5V5.03125H85.2617V15.5H82.4102ZM83.8359 3.87891C82.9766 3.87891 82.3125 3.22461 82.3125 2.4043C82.3125 1.57422 82.9766 0.929688 83.8359 0.929688C84.6953 0.929688 85.3594 1.57422 85.3594 2.4043C85.3594 3.22461 84.6953 3.87891 83.8359 3.87891ZM87.166 15.5V5.03125H89.9199V6.89648H89.9785C90.5352 5.59766 91.6387 4.83594 93.25 4.83594C95.5742 4.83594 96.8828 6.30078 96.8828 8.75195V15.5H94.0312V9.34766C94.0312 7.98047 93.3867 7.19922 92.1074 7.19922C90.8281 7.19922 90.0176 8.13672 90.0176 9.49414V15.5H87.166ZM108.201 8.92773H105.555C105.389 7.82422 104.656 7.04297 103.484 7.04297C102.078 7.04297 101.199 8.23438 101.199 10.2559C101.199 12.3164 102.078 13.4883 103.494 13.4883C104.637 13.4883 105.379 12.8047 105.555 11.6621H108.211C108.064 14.1328 106.219 15.7246 103.465 15.7246C100.311 15.7246 98.3086 13.6738 98.3086 10.2559C98.3086 6.89648 100.311 4.80664 103.445 4.80664C106.277 4.80664 108.074 6.55469 108.201 8.92773ZM111.443 15.6172C110.564 15.6172 109.871 14.9141 109.871 14.0449C109.871 13.166 110.564 12.4727 111.443 12.4727C112.312 12.4727 113.016 13.166 113.016 14.0449C113.016 14.9141 112.312 15.6172 111.443 15.6172Z" fill="white"/>
</svg>
