<svg width="40" height="40" viewBox="0 0 40 40" fill="none" xmlns="http://www.w3.org/2000/svg">
<rect x="0.65" y="0.65" width="38.7" height="38.7" rx="19.35" stroke="#6C6C6C" stroke-width="1.3"/>
<path d="M28.0991 11C28.7154 11 29.1804 11.6444 28.9317 12.843L25.915 29.7908C25.7041 30.9958 25.0932 31.2858 24.2498 30.7251L17.0541 24.3907C17.0262 24.3668 17.0034 24.3354 16.9878 24.2989C16.9721 24.2625 16.9639 24.2222 16.9639 24.1812C16.9639 24.1403 16.9721 24.1 16.9878 24.0635C17.0034 24.0271 17.0262 23.9957 17.0541 23.9718L25.3635 15.0275C25.742 14.628 25.2824 14.4347 24.7851 14.7955L14.3563 22.6379C14.3247 22.6625 14.2888 22.6782 14.2513 22.6837C14.2139 22.6893 14.1758 22.6847 14.1401 22.6701L9.71236 21.0011C8.72841 20.6596 8.72841 19.8541 9.93401 19.2806L27.6504 11.1353C27.7909 11.055 27.9435 11.009 28.0991 11Z" stroke="#6C6C6C" stroke-width="1.4" stroke-linecap="round" stroke-linejoin="round"/>
</svg>
