<svg width="28" height="23" viewBox="0 0 28 23" fill="none" xmlns="http://www.w3.org/2000/svg">
<path d="M18.25 10.0541H20.0833C21.2281 10.0541 22.145 9.73896 22.7754 9.10863C23.4057 8.4783 23.7208 7.56138 23.7208 6.41658V4.58325C23.7208 3.43845 23.4057 2.52154 22.7754 1.89121C22.145 1.26088 21.2281 0.945752 20.0833 0.945752H18.25C17.1052 0.945752 16.1883 1.26088 15.558 1.89121C14.9276 2.52154 14.6125 3.43845 14.6125 4.58325V6.41658C14.6125 7.56138 14.9276 8.4783 15.558 9.10863C16.1883 9.73896 17.1052 10.0541 18.25 10.0541ZM16.3875 4.58325C16.3875 3.88167 16.5371 3.43026 16.817 3.1503C17.097 2.87033 17.5484 2.72075 18.25 2.72075H20.0833C20.7849 2.72075 21.2363 2.87033 21.5163 3.1503C21.7963 3.43026 21.9458 3.88167 21.9458 4.58325V6.41658C21.9458 7.11817 21.7963 7.56957 21.5163 7.84954C21.2363 8.12951 20.7849 8.27909 20.0833 8.27909H18.25C17.5484 8.27909 17.097 8.12951 16.817 7.84954C16.5371 7.56957 16.3875 7.11817 16.3875 6.41658V4.58325Z" fill="#000000" stroke="#000000" stroke-width="0.4"/>
<path d="M7.25 21.0541H9.08333C10.2281 21.0541 11.145 20.739 11.7754 20.1086C12.4057 19.4783 12.7208 18.5614 12.7208 17.4166V15.5833C12.7208 14.4385 12.4057 13.5215 11.7754 12.8912C11.145 12.2609 10.2281 11.9458 9.08333 11.9458H7.25C6.1052 11.9458 5.18828 12.2609 4.55795 12.8912C3.92762 13.5215 3.6125 14.4385 3.6125 15.5833V17.4166C3.6125 18.5614 3.92762 19.4783 4.55795 20.1086C5.18828 20.739 6.1052 21.0541 7.25 21.0541ZM5.3875 15.5833C5.3875 14.8817 5.53708 14.4303 5.81705 14.1503C6.09701 13.8703 6.54842 13.7208 7.25 13.7208H9.08333C9.78491 13.7208 10.2363 13.8703 10.5163 14.1503C10.7963 14.4303 10.9458 14.8817 10.9458 15.5833V17.4166C10.9458 18.1182 10.7963 18.5696 10.5163 18.8495C10.2363 19.1295 9.78491 19.2791 9.08333 19.2791H7.25C6.54842 19.2791 6.09701 19.1295 5.81705 18.8495C5.53708 18.5696 5.3875 18.1182 5.3875 17.4166V15.5833Z" fill="#000000" stroke="#000000" stroke-width="0.4"/>
<path d="M3.6125 5.49992C3.6125 8.01204 5.65454 10.0541 8.16667 10.0541C10.6788 10.0541 12.7208 8.01204 12.7208 5.49992C12.7208 2.98779 10.6788 0.945752 8.16667 0.945752C5.65454 0.945752 3.6125 2.98779 3.6125 5.49992ZM5.3875 5.49992C5.3875 3.96954 6.63629 2.72075 8.16667 2.72075C9.69704 2.72075 10.9458 3.96954 10.9458 5.49992C10.9458 7.03029 9.69704 8.27909 8.16667 8.27909C6.63629 8.27909 5.3875 7.03029 5.3875 5.49992Z" fill="#000000" stroke="#000000" stroke-width="0.4"/>
<path d="M14.6125 16.4999C14.6125 19.012 16.6545 21.0541 19.1667 21.0541C21.6788 21.0541 23.7208 19.012 23.7208 16.4999C23.7208 13.9878 21.6788 11.9458 19.1667 11.9458C16.6545 11.9458 14.6125 13.9878 14.6125 16.4999ZM16.3875 16.4999C16.3875 14.9695 17.6363 13.7208 19.1667 13.7208C20.697 13.7208 21.9458 14.9695 21.9458 16.4999C21.9458 18.0303 20.697 19.2791 19.1667 19.2791C17.6363 19.2791 16.3875 18.0303 16.3875 16.4999Z" fill="#000000" stroke="#000000" stroke-width="0.4"/>
</svg>