<svg width="28" height="20" viewBox="0 0 28 20" fill="none" xmlns="http://www.w3.org/2000/svg">
<path d="M26.2571 0.5H2.10713C1.32012 0.5 0.682129 1.13799 0.682129 1.925V2.075C0.682129 2.86201 1.32012 3.5 2.10713 3.5H26.2571C27.0441 3.5 27.6821 2.86201 27.6821 2.075V1.925C27.6821 1.13799 27.0441 0.5 26.2571 0.5Z" fill="#040404"/>
<path d="M26.2571 8.5H2.10713C1.32012 8.5 0.682129 9.138 0.682129 9.925V10.075C0.682129 10.862 1.32012 11.5 2.10713 11.5H26.2571C27.0441 11.5 27.6821 10.862 27.6821 10.075V9.925C27.6821 9.138 27.0441 8.5 26.2571 8.5Z" fill="#040404"/>
<path d="M26.2571 16.5H2.10713C1.32012 16.5 0.682129 17.138 0.682129 17.925V18.075C0.682129 18.862 1.32012 19.5 2.10713 19.5H26.2571C27.0441 19.5 27.6821 18.862 27.6821 18.075V17.925C27.6821 17.138 27.0441 16.5 26.2571 16.5Z" fill="#040404"/>
</svg>
