<svg width="17" height="16" viewBox="0 0 17 16" fill="none" xmlns="http://www.w3.org/2000/svg">
<path d="M8.5 0C6.91775 0 5.37103 0.469192 4.05544 1.34824C2.73985 2.22729 1.71447 3.47672 1.10897 4.93853C0.503466 6.40034 0.34504 8.00887 0.653721 9.56072C0.962403 11.1126 1.72433 12.538 2.84315 13.6569C3.96197 14.7757 5.38743 15.5376 6.93928 15.8463C8.49113 16.155 10.0997 15.9965 11.5615 15.391C13.0233 14.7855 14.2727 13.7602 15.1518 12.4446C16.0308 11.129 16.5 9.58225 16.5 8C16.4978 5.87895 15.6542 3.84542 14.1544 2.34562C12.6546 0.845814 10.621 0.00223986 8.5 0ZM8.5 14.7692C7.16117 14.7692 5.85241 14.3722 4.73922 13.6284C3.62603 12.8846 2.7584 11.8274 2.24605 10.5905C1.7337 9.35356 1.59965 7.99249 1.86084 6.67939C2.12203 5.36629 2.76674 4.16012 3.71343 3.21343C4.66013 2.26674 5.86629 1.62203 7.17939 1.36084C8.49249 1.09965 9.85356 1.2337 11.0905 1.74605C12.3274 2.25839 13.3846 3.12602 14.1284 4.23922C14.8722 5.35241 15.2692 6.66117 15.2692 8C15.2672 9.79468 14.5534 11.5153 13.2843 12.7843C12.0153 14.0534 10.2947 14.7672 8.5 14.7692ZM6.03846 8C6.03846 8.51663 6.20102 9.02017 6.5031 9.43928C6.80518 9.8584 7.23147 10.1718 7.7216 10.3352C8.21172 10.4986 8.74082 10.5036 9.23395 10.3496C9.72709 10.1955 10.1593 9.89023 10.4692 9.47692C10.5673 9.34635 10.7131 9.26007 10.8748 9.23706C11.0364 9.21406 11.2006 9.2562 11.3312 9.35423C11.4617 9.45226 11.548 9.59814 11.571 9.75978C11.594 9.92142 11.5519 10.0856 11.4538 10.2162C10.9888 10.8359 10.3405 11.2937 9.60082 11.5246C8.86115 11.7555 8.06759 11.7478 7.33251 11.5027C6.59744 11.2575 5.95812 10.7874 5.50508 10.1587C5.05205 9.5301 4.80827 8.77487 4.80827 8C4.80827 7.22513 5.05205 6.4699 5.50508 5.84126C5.95812 5.21263 6.59744 4.74245 7.33251 4.49732C8.06759 4.25219 8.86115 4.24453 9.60082 4.47543C10.3405 4.70632 10.9888 5.16407 11.4538 5.78384C11.5024 5.8485 11.5377 5.92207 11.5578 6.00038C11.5779 6.07868 11.5824 6.16018 11.571 6.24022C11.5596 6.32025 11.5326 6.39726 11.4914 6.46685C11.4503 6.53643 11.3958 6.59723 11.3312 6.64577C11.2665 6.69431 11.1929 6.72964 11.1146 6.74974C11.0363 6.76984 10.9548 6.77432 10.8748 6.76293C10.7947 6.75154 10.7177 6.72449 10.6482 6.68334C10.5786 6.64218 10.5178 6.58773 10.4692 6.52308C10.1593 6.10977 9.72709 5.80447 9.23395 5.65043C8.74082 5.49638 8.21172 5.5014 7.7216 5.66478C7.23147 5.82815 6.80518 6.1416 6.5031 6.56071C6.20102 6.97983 6.03846 7.48336 6.03846 8Z" fill="#6C6C6C"/>
<path d="M8.5 0C6.91775 0 5.37103 0.469192 4.05544 1.34824C2.73985 2.22729 1.71447 3.47672 1.10897 4.93853C0.503466 6.40034 0.34504 8.00887 0.653721 9.56072C0.962403 11.1126 1.72433 12.538 2.84315 13.6569C3.96197 14.7757 5.38743 15.5376 6.93928 15.8463C8.49113 16.155 10.0997 15.9965 11.5615 15.391C13.0233 14.7855 14.2727 13.7602 15.1518 12.4446C16.0308 11.129 16.5 9.58225 16.5 8C16.4978 5.87895 15.6542 3.84542 14.1544 2.34562C12.6546 0.845814 10.621 0.00223986 8.5 0ZM8.5 14.7692C7.16117 14.7692 5.85241 14.3722 4.73922 13.6284C3.62603 12.8846 2.7584 11.8274 2.24605 10.5905C1.7337 9.35356 1.59965 7.99249 1.86084 6.67939C2.12203 5.36629 2.76674 4.16012 3.71343 3.21343C4.66013 2.26674 5.86629 1.62203 7.17939 1.36084C8.49249 1.09965 9.85356 1.2337 11.0905 1.74605C12.3274 2.25839 13.3846 3.12602 14.1284 4.23922C14.8722 5.35241 15.2692 6.66117 15.2692 8C15.2672 9.79468 14.5534 11.5153 13.2843 12.7843C12.0153 14.0534 10.2947 14.7672 8.5 14.7692ZM6.03846 8C6.03846 8.51663 6.20102 9.02017 6.5031 9.43928C6.80518 9.8584 7.23147 10.1718 7.7216 10.3352C8.21172 10.4986 8.74082 10.5036 9.23395 10.3496C9.72709 10.1955 10.1593 9.89023 10.4692 9.47692C10.5673 9.34635 10.7131 9.26007 10.8748 9.23706C11.0364 9.21406 11.2006 9.2562 11.3312 9.35423C11.4617 9.45226 11.548 9.59814 11.571 9.75978C11.594 9.92142 11.5519 10.0856 11.4538 10.2162C10.9888 10.8359 10.3405 11.2937 9.60082 11.5246C8.86115 11.7555 8.06759 11.7478 7.33251 11.5027C6.59744 11.2575 5.95812 10.7874 5.50508 10.1587C5.05205 9.5301 4.80827 8.77487 4.80827 8C4.80827 7.22513 5.05205 6.4699 5.50508 5.84126C5.95812 5.21263 6.59744 4.74245 7.33251 4.49732C8.06759 4.25219 8.86115 4.24453 9.60082 4.47543C10.3405 4.70632 10.9888 5.16407 11.4538 5.78384C11.5024 5.8485 11.5377 5.92207 11.5578 6.00038C11.5779 6.07868 11.5824 6.16018 11.571 6.24022C11.5596 6.32025 11.5326 6.39726 11.4914 6.46685C11.4503 6.53643 11.3958 6.59723 11.3312 6.64577C11.2665 6.69431 11.1929 6.72964 11.1146 6.74974C11.0363 6.76984 10.9548 6.77432 10.8748 6.76293C10.7947 6.75154 10.7177 6.72449 10.6482 6.68334C10.5786 6.64218 10.5178 6.58773 10.4692 6.52308C10.1593 6.10977 9.72709 5.80447 9.23395 5.65043C8.74082 5.49638 8.21172 5.5014 7.7216 5.66478C7.23147 5.82815 6.80518 6.1416 6.5031 6.56071C6.20102 6.97983 6.03846 7.48336 6.03846 8Z" fill="black" fill-opacity="0.2"/>
</svg>
