<svg width="40" height="40" viewBox="0 0 40 40" fill="none" xmlns="http://www.w3.org/2000/svg">
<mask id="path-2-inside-1_2809_32285" fill="#00B06C">
<path d="M32 19.1664C32.0009 18.2094 31.7596 17.2669 31.2974 16.422C30.8352 15.5771 30.1663 14.8557 29.3496 14.3214C28.5329 13.7872 27.5936 13.4565 26.6144 13.3585C25.6352 13.2605 24.6463 13.3982 23.7348 13.7595C22.8233 14.1208 22.0172 14.6946 21.3876 15.4302C20.7581 16.1659 20.3243 17.0408 20.1247 17.9779C19.9251 18.915 19.9656 19.8855 20.2428 20.8037C20.4777 21.5817 20.8763 22.3019 21.4115 22.9195C21.5363 23.0635 21.5987 23.1354 21.633 23.1981C21.6666 23.2596 21.6842 23.3067 21.6991 23.3751C21.7143 23.4447 21.7143 23.5249 21.7143 23.6851V29.1661C21.7142 29.3082 21.7515 29.448 21.8226 29.5722C21.8937 29.6963 21.9963 29.8007 22.1207 29.8755C22.245 29.9502 22.3869 29.9928 22.533 29.9992C22.679 30.0055 22.8243 29.9755 22.955 29.9119L25.5266 28.661C25.7003 28.5765 25.7872 28.5342 25.8781 28.5176C25.9587 28.5028 26.0413 28.5028 26.1219 28.5176C26.2128 28.5342 26.2997 28.5765 26.4734 28.661L29.045 29.9119C29.1757 29.9755 29.321 30.0055 29.467 29.9992C29.6131 29.9928 29.755 29.9502 29.8793 29.8755C30.0037 29.8007 30.1063 29.6963 30.1774 29.5722C30.2485 29.448 30.2858 29.3082 30.2857 29.1661V23.686C30.2857 23.5254 30.2857 23.4452 30.3009 23.3754C30.3159 23.3069 30.3335 23.2598 30.3673 23.1982C30.4016 23.1355 30.4642 23.0634 30.5895 22.9192C31.4978 21.8733 32.0007 20.5447 32 19.1664ZM26 14.9999C26.8476 14.9999 27.6762 15.2442 28.381 15.702C29.0858 16.1599 29.6351 16.8106 29.9595 17.5719C30.2839 18.3333 30.3687 19.171 30.2034 19.9792C30.038 20.7875 29.6298 21.5299 29.0305 22.1126C28.4311 22.6953 27.6674 23.0921 26.8361 23.2529C26.0048 23.4136 25.143 23.3311 24.3599 23.0158C23.5768 22.7004 22.9075 22.1664 22.4366 21.4812C21.9656 20.796 21.7143 19.9905 21.7143 19.1664C21.7143 18.0614 22.1658 17.0016 22.9695 16.2202C23.7733 15.4388 24.8634 14.9999 26 14.9999ZM26.3836 26.7537C26.2645 26.6957 26.1332 26.6656 26 26.6656C25.8668 26.6656 25.7355 26.6957 25.6164 26.7537L24.9763 27.0651C24.4638 27.3145 24.2075 27.4392 23.9994 27.4078C23.817 27.3802 23.6539 27.2794 23.5486 27.129C23.4286 26.9575 23.4286 26.6744 23.4286 26.108C23.4286 25.5519 23.4286 25.2739 23.5167 25.1204C23.6072 24.9629 23.6932 24.8902 23.8642 24.8264C24.0308 24.7643 24.3656 24.8174 25.0351 24.9235C25.3532 24.974 25.6759 24.9995 26 24.9995C26.3241 24.9995 26.6468 24.974 26.9649 24.9235C27.6344 24.8174 27.9691 24.7643 28.1358 24.8264C28.3068 24.8902 28.3928 24.9629 28.4833 25.1204C28.5714 25.2739 28.5714 25.5519 28.5714 26.108C28.5714 26.6744 28.5714 26.9575 28.4514 27.129C28.3461 27.2794 28.183 27.3802 28.0005 27.4078C27.7925 27.4392 27.5362 27.3145 27.0237 27.0651L26.3836 26.7537ZM20 25.8329C20 26.0539 19.9097 26.2658 19.7489 26.4221C19.5882 26.5784 19.3702 26.6662 19.1429 26.6662H9.71429C9.25963 26.6662 8.82359 26.4906 8.5021 26.178C8.18061 25.8655 8 25.4416 8 24.9996V11.6666C8 11.2246 8.18061 10.8007 8.5021 10.4881C8.82359 10.1756 9.25963 10 9.71429 10H28.5714C29.0261 10 29.4621 10.1756 29.7836 10.4881C30.1051 10.8007 30.2857 11.2246 30.2857 11.6666C30.2857 11.8876 30.1954 12.0996 30.0347 12.2559C29.8739 12.4121 29.6559 12.4999 29.4286 12.4999C29.2012 12.4999 28.9832 12.4121 28.8225 12.2559C28.5613 12.0019 28.275 11.6666 27.9093 11.6666H10.7895C10.4131 11.6666 10.225 11.6666 10.0812 11.7393C9.95476 11.8032 9.85196 11.9052 9.78753 12.0306C9.71429 12.1732 9.71429 12.3599 9.71429 12.7333V23.9329C9.71429 24.3063 9.71429 24.4929 9.78753 24.6355C9.85196 24.761 9.95476 24.863 10.0812 24.9269C10.225 24.9996 10.4131 24.9996 10.7895 24.9996H19.1429C19.3702 24.9996 19.5882 25.0873 19.7489 25.2436C19.9097 25.3999 20 25.6119 20 25.8329ZM18.2857 19.9997C18.2857 20.2207 18.1954 20.4327 18.0347 20.5889C17.8739 20.7452 17.6559 20.833 17.4286 20.833H13.1429C12.9155 20.833 12.6975 20.7452 12.5368 20.5889C12.376 20.4327 12.2857 20.2207 12.2857 19.9997C12.2857 19.7787 12.376 19.5667 12.5368 19.4105C12.6975 19.2542 12.9155 19.1664 13.1429 19.1664H17.4286C17.6559 19.1664 17.8739 19.2542 18.0347 19.4105C18.1954 19.5667 18.2857 19.7787 18.2857 19.9997ZM18.2857 16.6665C18.2857 16.8875 18.1954 17.0994 18.0347 17.2557C17.8739 17.412 17.6559 17.4998 17.4286 17.4998H13.1429C12.9155 17.4998 12.6975 17.412 12.5368 17.2557C12.376 17.0994 12.2857 16.8875 12.2857 16.6665C12.2857 16.4455 12.376 16.2335 12.5368 16.0772C12.6975 15.921 12.9155 15.8332 13.1429 15.8332H17.4286C17.6559 15.8332 17.8739 15.921 18.0347 16.0772C18.1954 16.2335 18.2857 16.4455 18.2857 16.6665Z"/>
</mask>
<path d="M32 19.1664C32.0009 18.2094 31.7596 17.2669 31.2974 16.422C30.8352 15.5771 30.1663 14.8557 29.3496 14.3214C28.5329 13.7872 27.5936 13.4565 26.6144 13.3585C25.6352 13.2605 24.6463 13.3982 23.7348 13.7595C22.8233 14.1208 22.0172 14.6946 21.3876 15.4302C20.7581 16.1659 20.3243 17.0408 20.1247 17.9779C19.9251 18.915 19.9656 19.8855 20.2428 20.8037C20.4777 21.5817 20.8763 22.3019 21.4115 22.9195C21.5363 23.0635 21.5987 23.1354 21.633 23.1981C21.6666 23.2596 21.6842 23.3067 21.6991 23.3751C21.7143 23.4447 21.7143 23.5249 21.7143 23.6851V29.1661C21.7142 29.3082 21.7515 29.448 21.8226 29.5722C21.8937 29.6963 21.9963 29.8007 22.1207 29.8755C22.245 29.9502 22.3869 29.9928 22.533 29.9992C22.679 30.0055 22.8243 29.9755 22.955 29.9119L25.5266 28.661C25.7003 28.5765 25.7872 28.5342 25.8781 28.5176C25.9587 28.5028 26.0413 28.5028 26.1219 28.5176C26.2128 28.5342 26.2997 28.5765 26.4734 28.661L29.045 29.9119C29.1757 29.9755 29.321 30.0055 29.467 29.9992C29.6131 29.9928 29.755 29.9502 29.8793 29.8755C30.0037 29.8007 30.1063 29.6963 30.1774 29.5722C30.2485 29.448 30.2858 29.3082 30.2857 29.1661V23.686C30.2857 23.5254 30.2857 23.4452 30.3009 23.3754C30.3159 23.3069 30.3335 23.2598 30.3673 23.1982C30.4016 23.1355 30.4642 23.0634 30.5895 22.9192C31.4978 21.8733 32.0007 20.5447 32 19.1664ZM26 14.9999C26.8476 14.9999 27.6762 15.2442 28.381 15.702C29.0858 16.1599 29.6351 16.8106 29.9595 17.5719C30.2839 18.3333 30.3687 19.171 30.2034 19.9792C30.038 20.7875 29.6298 21.5299 29.0305 22.1126C28.4311 22.6953 27.6674 23.0921 26.8361 23.2529C26.0048 23.4136 25.143 23.3311 24.3599 23.0158C23.5768 22.7004 22.9075 22.1664 22.4366 21.4812C21.9656 20.796 21.7143 19.9905 21.7143 19.1664C21.7143 18.0614 22.1658 17.0016 22.9695 16.2202C23.7733 15.4388 24.8634 14.9999 26 14.9999ZM26.3836 26.7537C26.2645 26.6957 26.1332 26.6656 26 26.6656C25.8668 26.6656 25.7355 26.6957 25.6164 26.7537L24.9763 27.0651C24.4638 27.3145 24.2075 27.4392 23.9994 27.4078C23.817 27.3802 23.6539 27.2794 23.5486 27.129C23.4286 26.9575 23.4286 26.6744 23.4286 26.108C23.4286 25.5519 23.4286 25.2739 23.5167 25.1204C23.6072 24.9629 23.6932 24.8902 23.8642 24.8264C24.0308 24.7643 24.3656 24.8174 25.0351 24.9235C25.3532 24.974 25.6759 24.9995 26 24.9995C26.3241 24.9995 26.6468 24.974 26.9649 24.9235C27.6344 24.8174 27.9691 24.7643 28.1358 24.8264C28.3068 24.8902 28.3928 24.9629 28.4833 25.1204C28.5714 25.2739 28.5714 25.5519 28.5714 26.108C28.5714 26.6744 28.5714 26.9575 28.4514 27.129C28.3461 27.2794 28.183 27.3802 28.0005 27.4078C27.7925 27.4392 27.5362 27.3145 27.0237 27.0651L26.3836 26.7537ZM20 25.8329C20 26.0539 19.9097 26.2658 19.7489 26.4221C19.5882 26.5784 19.3702 26.6662 19.1429 26.6662H9.71429C9.25963 26.6662 8.82359 26.4906 8.5021 26.178C8.18061 25.8655 8 25.4416 8 24.9996V11.6666C8 11.2246 8.18061 10.8007 8.5021 10.4881C8.82359 10.1756 9.25963 10 9.71429 10H28.5714C29.0261 10 29.4621 10.1756 29.7836 10.4881C30.1051 10.8007 30.2857 11.2246 30.2857 11.6666C30.2857 11.8876 30.1954 12.0996 30.0347 12.2559C29.8739 12.4121 29.6559 12.4999 29.4286 12.4999C29.2012 12.4999 28.9832 12.4121 28.8225 12.2559C28.5613 12.0019 28.275 11.6666 27.9093 11.6666H10.7895C10.4131 11.6666 10.225 11.6666 10.0812 11.7393C9.95476 11.8032 9.85196 11.9052 9.78753 12.0306C9.71429 12.1732 9.71429 12.3599 9.71429 12.7333V23.9329C9.71429 24.3063 9.71429 24.4929 9.78753 24.6355C9.85196 24.761 9.95476 24.863 10.0812 24.9269C10.225 24.9996 10.4131 24.9996 10.7895 24.9996H19.1429C19.3702 24.9996 19.5882 25.0873 19.7489 25.2436C19.9097 25.3999 20 25.6119 20 25.8329ZM18.2857 19.9997C18.2857 20.2207 18.1954 20.4327 18.0347 20.5889C17.8739 20.7452 17.6559 20.833 17.4286 20.833H13.1429C12.9155 20.833 12.6975 20.7452 12.5368 20.5889C12.376 20.4327 12.2857 20.2207 12.2857 19.9997C12.2857 19.7787 12.376 19.5667 12.5368 19.4105C12.6975 19.2542 12.9155 19.1664 13.1429 19.1664H17.4286C17.6559 19.1664 17.8739 19.2542 18.0347 19.4105C18.1954 19.5667 18.2857 19.7787 18.2857 19.9997ZM18.2857 16.6665C18.2857 16.8875 18.1954 17.0994 18.0347 17.2557C17.8739 17.412 17.6559 17.4998 17.4286 17.4998H13.1429C12.9155 17.4998 12.6975 17.412 12.5368 17.2557C12.376 17.0994 12.2857 16.8875 12.2857 16.6665C12.2857 16.4455 12.376 16.2335 12.5368 16.0772C12.6975 15.921 12.9155 15.8332 13.1429 15.8332H17.4286C17.6559 15.8332 17.8739 15.921 18.0347 16.0772C18.1954 16.2335 18.2857 16.4455 18.2857 16.6665Z" fill="#00B06C" stroke="#00B06C" stroke-width="2" mask="url(#path-2-inside-1_2809_32285)"/>
</svg>
