<svg width="20" height="17" viewBox="0 0 20 17" fill="none" xmlns="http://www.w3.org/2000/svg">
<path d="M18.5912 5.7706C18.926 6.41858 19.1006 7.14122 19.1 7.87484C19.1005 9.03027 18.6651 10.1407 17.8857 10.9723V15.3745V15.3746H17.7857C17.7858 15.4812 17.7594 15.586 17.709 15.6791C17.6586 15.7722 17.5859 15.8505 17.4979 15.9066C17.4098 15.9626 17.3093 15.9946 17.2058 15.9994C17.1024 16.0042 16.9995 15.9816 16.9069 15.9339L18.5912 5.7706ZM18.5912 5.7706C18.2564 5.12259 17.7717 4.56901 17.1796 4.15888C16.5874 3.74874 15.9061 3.49471 15.1957 3.41943C14.4853 3.34415 13.7679 3.44997 13.1068 3.72743C12.4457 4.00489 11.8613 4.44539 11.4051 5.00982C10.949 5.57423 10.6349 6.24527 10.4903 6.96372C10.3457 7.68216 10.3751 8.42616 10.5758 9.1302C10.7729 9.82123 11.1291 10.4531 11.6143 10.9722M11.6143 15.3745C11.6142 15.4976 11.6447 15.6188 11.703 15.7267C11.7614 15.8346 11.8458 15.9256 11.9484 15.991C12.0511 16.0563 12.1685 16.0937 12.2896 16.0993C12.4106 16.1049 12.5309 16.0785 12.6389 16.0228L14.75 14.9355L11.7143 10.9325M11.6143 15.3745L11.7143 15.3746H11.6143V15.3745ZM11.6143 15.3745V10.9722M11.6143 10.9722C11.6234 10.982 11.6326 10.9918 11.6419 11.0015L11.7143 10.9325M11.6143 10.9722V10.9325H11.7143M15.0675 13.4764L15.0675 13.4763C14.9691 13.4257 14.8603 13.3992 14.75 13.3992C14.6396 13.3992 14.5309 13.4257 14.4325 13.4763L14.4325 13.4764L13.0286 14.1997V11.984C13.5716 12.225 14.1573 12.3497 14.75 12.3497C15.3427 12.3497 15.9284 12.225 16.4714 11.984V14.1997L15.0675 13.4764Z" fill="#00B06C" stroke="#00B06C" stroke-width="0.2"/>
</svg>
