<svg width="45" height="44" viewBox="0 0 45 44" fill="none" xmlns="http://www.w3.org/2000/svg">
<rect x="1" y="-1" width="42" height="42" rx="21" transform="matrix(-1 0 0 1 44.5 2)" stroke="#F3F3F3" stroke-width="2"/>
<path d="M5.3125 25.3297C5.3125 27.7906 5.79219 29.8875 6.7 31.3937C7.80156 33.2219 9.5125 34.1875 11.65 34.1875C15.8281 34.1875 18.8844 28.4828 22.1187 22.4422C24.8219 17.4016 27.8828 11.6875 30.9375 11.6875C34.575 11.6875 37.8125 19.3172 37.8125 25.3297C37.8125 27.45 37.425 29.2109 36.6937 30.4266C35.9281 31.6953 34.8344 32.3125 33.35 32.3125C30.825 32.3125 28.3016 28.3969 26.1625 24.5672C26.0315 24.3711 25.8314 24.2317 25.6021 24.1766C25.3728 24.1215 25.1312 24.1548 24.9254 24.27C24.7196 24.3851 24.5647 24.5735 24.4917 24.7977C24.4186 25.0219 24.4328 25.2654 24.5312 25.4797C26.875 29.6922 29.6875 34.1875 33.35 34.1875C35.4859 34.1875 37.1984 33.2219 38.3 31.3937C39.2078 29.8875 39.6875 27.7906 39.6875 25.3297C39.6875 19.0031 36.2797 9.8125 30.9375 9.8125C26.7594 9.8125 23.7031 15.5172 20.4688 21.5578C17.7672 26.5984 14.7062 32.3125 11.65 32.3125C10.1656 32.3125 9.07188 31.6953 8.30625 30.4266C7.575 29.2109 7.1875 27.45 7.1875 25.3297C7.1875 19.3172 10.4234 11.6875 14.0625 11.6875C15.4688 11.6875 17.0172 12.9 18.7719 15.3953C18.9151 15.5988 19.1332 15.737 19.3783 15.7797C19.6234 15.8223 19.8754 15.7658 20.0789 15.6227C20.2824 15.4795 20.4206 15.2613 20.4633 15.0162C20.5059 14.7711 20.4494 14.5191 20.3063 14.3156C18.9453 12.3828 16.8172 9.8125 14.0625 9.8125C8.72031 9.8125 5.3125 19.0031 5.3125 25.3297Z" fill="black"/>
</svg>
