<svg width="22" height="19" viewBox="0 0 22 19" fill="none" xmlns="http://www.w3.org/2000/svg">
<path d="M11.2662 11.8134C10.9308 12.3055 10.6089 12.7869 9.88767 13.2545C9.50188 13.5069 8.61391 14 7.35173 14C4.94366 14 3 12.3661 3 9.49363C3 6.98315 4.82836 5 7.40307 5C8.44617 5 9.37294 5.33653 10.0554 5.84137C10.6866 6.30997 10.9822 6.7787 11.2401 7.19938L9.43793 8.03976C9.30899 7.76384 9.15379 7.47523 8.75543 7.16314C8.31726 6.83832 7.88006 6.74246 7.50579 6.74246C6.03813 6.74246 5.26549 8.01631 5.26549 9.43395C5.26549 11.2968 6.28343 12.2213 7.50579 12.2213C8.69041 12.2213 9.1674 11.4523 9.47566 10.9602L11.2662 11.8134V11.8134ZM17.5794 5.26418H20L16.8455 13.7476H14.5287L11.413 5.26418H13.8336L15.7133 11.2968L17.5794 5.26418Z" fill="#2F4FF8"/>
</svg>
