<svg width="212" height="37" viewBox="0 0 212 37" fill="none" xmlns="http://www.w3.org/2000/svg">
<g clip-path="url(#clip0_1487_2746)">
<mask id="mask0_1487_2746" style="mask-type:luminance" maskUnits="userSpaceOnUse" x="0" y="0" width="212" height="37">
<path d="M211.429 0H0V37H211.429V0Z" fill="white"/>
</mask>
<g mask="url(#mask0_1487_2746)">
<path d="M58.9244 0C59.3109 0 59.5041 0.190779 59.5041 0.572338V4.63482C59.5041 5.01638 59.3109 5.20716 58.9244 5.20716H45.1254V12.3783H57.7309C58.1174 12.3783 58.3447 12.569 58.3447 12.9505V16.8222C58.3447 17.2039 58.1174 17.3946 57.7309 17.3946H45.1254V24.1841H58.9244C59.3109 24.1841 59.5041 24.3749 59.5041 24.7564V28.819C59.5041 29.2005 59.3109 29.3913 58.9244 29.3913H39.6695C39.283 29.3913 39.0898 29.2005 39.0898 28.7853V0.572338C39.0898 0.190779 39.283 0 39.6695 0H58.9244Z" fill="white"/>
<path d="M82.2153 8.125C82.6813 8.125 82.795 8.428 82.4881 8.80956L75.8728 18.2587L83.17 28.6506C83.4429 29.0322 83.3179 29.3689 82.8632 29.3689H77.3276C77.0549 29.3689 76.8616 29.2118 76.7139 28.9873L72.3718 22.613L67.9958 28.9873C67.8821 29.2118 67.6889 29.3689 67.3819 29.3689H61.8806C61.4146 29.3689 61.3009 29.0322 61.5737 28.6506L68.8709 18.2587L62.2216 8.80956C61.9147 8.428 62.0624 8.125 62.5284 8.125H68.0299C68.3367 8.125 68.53 8.23722 68.7232 8.46166L72.3718 13.8484L76.0205 8.46166C76.1797 8.23722 76.407 8.125 76.7139 8.125H82.2039H82.2153Z" fill="white"/>
<path d="M105.039 18.4377C105.039 27.1686 103.152 29.559 96.1615 29.559C94.5476 29.559 93.0808 29.5254 91.4326 29.3345V36.4271C91.4326 36.8086 91.2396 36.9994 90.8529 36.9994H86.318C85.9316 36.9994 85.7383 36.8086 85.7383 36.4271V9.59451C85.7383 9.06708 86.0452 8.76404 86.5453 8.65182C89.6936 8.15803 92.3532 7.93359 95.0022 7.93359C103.106 7.93359 105.039 10.2117 105.039 18.4489V18.4377ZM91.4326 12.7816V24.4305C92.547 24.5763 93.8878 24.6548 94.8886 24.6548C98.7753 24.6548 99.3444 23.6336 99.3444 18.7295C99.3444 14.2517 99.037 12.7704 95.2744 12.7704H91.4326V12.7816Z" fill="white"/>
<path d="M127.408 18.4821V19.6604C127.408 20.4235 127.181 20.6816 126.181 20.6816H114.11C114.189 24.0933 115.11 24.6993 118.451 24.6993H125.26C125.647 24.6993 125.84 24.89 125.84 25.2716V28.425C125.84 28.8403 125.647 28.9974 125.306 29.031C123.271 29.4463 120.498 29.5585 117.962 29.5585C110.2 29.5585 108.312 27.3926 108.312 18.7402C108.312 10.0878 110.2 7.92188 117.962 7.92188C125.726 7.92188 127.375 10.0092 127.419 18.4709L127.408 18.4821ZM114.076 17.0007H121.691C121.657 13.6565 120.77 12.7923 117.962 12.7923C115.156 12.7923 114.121 13.6677 114.076 17.0007Z" fill="white"/>
<path d="M143.014 8.34833C143.435 8.46055 143.628 8.61766 143.628 9.11146V12.22C143.628 12.6016 143.401 12.7923 142.969 12.7923H139.354C137.354 12.7923 136.66 13.0954 136.66 14.7226V28.7617C136.66 29.177 136.468 29.3677 136.081 29.3677H131.511C131.125 29.3677 130.932 29.177 130.932 28.7617V13.2749C130.932 8.49422 134.387 7.92188 137.888 7.92188C139.002 7.92188 141.65 8.0341 143.002 8.3371L143.014 8.34833Z" fill="white"/>
<path d="M152.859 2.24501C153.246 2.13278 153.473 2.3909 153.473 2.81734V8.23773H157.008C157.429 8.23773 157.668 8.42851 157.668 8.81007V11.8513C157.668 12.2329 157.44 12.4236 157.008 12.4236H153.473V22.7819C153.473 24.4091 154.053 24.7121 155.746 24.7121H157.327C157.793 24.7121 157.986 24.8692 157.986 25.2844V28.5052C157.986 28.9654 157.793 29.1449 157.372 29.2235C156.031 29.4928 154.951 29.5601 154.109 29.5601C150.802 29.5601 147.801 29.448 147.801 24.6672V12.4124H145.528C145.107 12.4124 144.914 12.2216 144.914 11.8401V8.79884C144.914 8.41728 145.107 8.2265 145.528 8.2265H147.801V4.01813C147.801 3.63658 147.96 3.49068 148.336 3.41213L152.871 2.23378L152.859 2.24501Z" fill="white"/>
<path d="M166.882 26.4847C166.882 28.4148 165.655 29.5595 163.541 29.5595C161.426 29.5595 160.199 28.4261 160.199 26.4847C160.199 24.5431 161.392 23.4434 163.541 23.4434C165.689 23.4434 166.882 24.5431 166.882 26.4847Z" fill="#448FFF"/>
<path d="M188.98 8.1245C189.366 8.1245 189.514 8.31528 189.514 8.69684V28.2685C189.514 28.7624 189.366 28.8409 188.98 28.9195C186.366 29.4132 182.637 29.5591 179.75 29.5591C172.373 29.5591 170.486 28.19 170.486 20.4129V8.68562C170.486 8.30406 170.714 8.11328 171.1 8.11328H175.635C176.022 8.11328 176.17 8.30406 176.17 8.68562V18.9652C176.17 24.4306 176.783 24.6999 180.319 24.6999H183.774V8.68562C183.774 8.30406 183.968 8.11328 184.353 8.11328H188.969L188.98 8.1245Z" fill="white"/>
<path d="M210.281 8.125C210.701 8.125 210.929 8.31578 210.929 8.69734V11.2785C210.929 11.5815 210.814 11.7723 210.656 11.9967L201.199 24.5208H210.77C211.19 24.5208 211.417 24.7116 211.417 25.0931V28.774C211.417 29.1893 211.19 29.38 210.77 29.38H193.629C193.163 29.38 192.936 29.1893 192.936 28.774V26.3052C192.936 26.0359 193.015 25.845 193.208 25.5869L202.972 12.872H194.061C193.595 12.872 193.402 12.6812 193.402 12.2997V8.69734C193.402 8.31578 193.595 8.125 194.061 8.125H210.281Z" fill="white"/>
<path d="M0.431927 0.751709H26.7682C27.1547 0.751709 27.3478 1.22305 27.075 1.48116L22.1306 6.23942C22.051 6.31798 21.9374 6.36287 21.8237 6.36287H0.431927C0.193231 6.36287 0 6.17209 0 5.93643V1.17816C0 0.942492 0.193231 0.751709 0.431927 0.751709Z" fill="white"/>
<path d="M13.2875 15.3528L15.1289 17.1259C15.4016 17.3952 15.2198 17.8554 14.8219 17.8554H0.431927C0.193231 17.8554 0 17.6646 0 17.4289V12.6706C0 12.435 0.193231 12.2441 0.431927 12.2441H14.8106C15.197 12.2441 15.3902 12.7155 15.1175 12.9737L13.2875 14.7243C13.1169 14.8926 13.1169 15.1732 13.2875 15.3416V15.3528Z" fill="white"/>
<path d="M22.1306 23.8812L27.075 28.6395C27.3478 28.9088 27.166 29.369 26.7682 29.369H0.431927C0.193231 29.369 0 29.1781 0 28.9425V24.1842C0 23.9485 0.193231 23.7578 0.431927 23.7578H21.8237C21.9374 23.7578 22.0397 23.8027 22.1306 23.8812Z" fill="white"/>
<path d="M33.3487 28.6625L19.5497 15.3641C19.3793 15.1958 19.3793 14.9152 19.5497 14.7468L33.3601 1.45964C33.6329 1.1903 34.0989 1.3923 34.0989 1.76264V28.3483C34.0876 28.7299 33.6215 28.9206 33.3487 28.6513V28.6625Z" fill="#448FFF"/>
</g>
</g>
<defs>
<clipPath id="clip0_1487_2746">
<rect width="211.429" height="37" fill="white"/>
</clipPath>
</defs>
</svg>
