<svg width="22" height="22" viewBox="0 0 22 22" fill="none" xmlns="http://www.w3.org/2000/svg">
<path d="M16.25 12.75C16.5152 12.75 16.7695 12.6446 16.9571 12.4571C17.1446 12.2696 17.25 12.0152 17.25 11.75C17.25 11.4848 17.1446 11.2304 16.9571 11.0429C16.7695 10.8554 16.5152 10.75 16.25 10.75C15.9848 10.75 15.7304 10.8554 15.5429 11.0429C15.3553 11.2304 15.25 11.4848 15.25 11.75C15.25 12.0152 15.3553 12.2696 15.5429 12.4571C15.7304 12.6446 15.9848 12.75 16.25 12.75ZM16.25 16.75C16.5152 16.75 16.7695 16.6446 16.9571 16.4571C17.1446 16.2696 17.25 16.0152 17.25 15.75C17.25 15.4848 17.1446 15.2304 16.9571 15.0429C16.7695 14.8554 16.5152 14.75 16.25 14.75C15.9848 14.75 15.7304 14.8554 15.5429 15.0429C15.3553 15.2304 15.25 15.4848 15.25 15.75C15.25 16.0152 15.3553 16.2696 15.5429 16.4571C15.7304 16.6446 15.9848 16.75 16.25 16.75ZM12.25 11.75C12.25 12.0152 12.1446 12.2696 11.9571 12.4571C11.7695 12.6446 11.5152 12.75 11.25 12.75C10.9848 12.75 10.7304 12.6446 10.5429 12.4571C10.3553 12.2696 10.25 12.0152 10.25 11.75C10.25 11.4848 10.3553 11.2304 10.5429 11.0429C10.7304 10.8554 10.9848 10.75 11.25 10.75C11.5152 10.75 11.7695 10.8554 11.9571 11.0429C12.1446 11.2304 12.25 11.4848 12.25 11.75ZM12.25 15.75C12.25 16.0152 12.1446 16.2696 11.9571 16.4571C11.7695 16.6446 11.5152 16.75 11.25 16.75C10.9848 16.75 10.7304 16.6446 10.5429 16.4571C10.3553 16.2696 10.25 16.0152 10.25 15.75C10.25 15.4848 10.3553 15.2304 10.5429 15.0429C10.7304 14.8554 10.9848 14.75 11.25 14.75C11.5152 14.75 11.7695 14.8554 11.9571 15.0429C12.1446 15.2304 12.25 15.4848 12.25 15.75ZM6.24998 12.75C6.51519 12.75 6.76955 12.6446 6.95708 12.4571C7.14462 12.2696 7.24998 12.0152 7.24998 11.75C7.24998 11.4848 7.14462 11.2304 6.95708 11.0429C6.76955 10.8554 6.51519 10.75 6.24998 10.75C5.98476 10.75 5.73041 10.8554 5.54287 11.0429C5.35533 11.2304 5.24998 11.4848 5.24998 11.75C5.24998 12.0152 5.35533 12.2696 5.54287 12.4571C5.73041 12.6446 5.98476 12.75 6.24998 12.75ZM6.24998 16.75C6.51519 16.75 6.76955 16.6446 6.95708 16.4571C7.14462 16.2696 7.24998 16.0152 7.24998 15.75C7.24998 15.4848 7.14462 15.2304 6.95708 15.0429C6.76955 14.8554 6.51519 14.75 6.24998 14.75C5.98476 14.75 5.73041 14.8554 5.54287 15.0429C5.35533 15.2304 5.24998 15.4848 5.24998 15.75C5.24998 16.0152 5.35533 16.2696 5.54287 16.4571C5.73041 16.6446 5.98476 16.75 6.24998 16.75Z" fill="#040404"/>
<path fill-rule="evenodd" clip-rule="evenodd" d="M6.24998 0.5C6.44889 0.5 6.63965 0.579018 6.78031 0.71967C6.92096 0.860322 6.99998 1.05109 6.99998 1.25V2.013C7.66198 2 8.39098 2 9.19298 2H13.306C14.109 2 14.838 2 15.5 2.013V1.25C15.5 1.05109 15.579 0.860322 15.7196 0.71967C15.8603 0.579018 16.0511 0.5 16.25 0.5C16.4489 0.5 16.6397 0.579018 16.7803 0.71967C16.921 0.860322 17 1.05109 17 1.25V2.077C17.26 2.097 17.506 2.122 17.739 2.153C18.911 2.311 19.86 2.643 20.609 3.391C21.357 4.14 21.689 5.089 21.847 6.261C22 7.401 22 8.856 22 10.694V12.806C22 14.644 22 16.1 21.847 17.239C21.689 18.411 21.357 19.36 20.609 20.109C19.86 20.857 18.911 21.189 17.739 21.347C16.599 21.5 15.144 21.5 13.306 21.5H9.19498C7.35698 21.5 5.90098 21.5 4.76198 21.347C3.58998 21.189 2.64098 20.857 1.89198 20.109C1.14398 19.36 0.811977 18.411 0.653977 17.239C0.500977 16.099 0.500977 14.644 0.500977 12.806V10.694C0.500977 8.856 0.500977 7.4 0.653977 6.261C0.811977 5.089 1.14398 4.14 1.89198 3.391C2.64098 2.643 3.58998 2.311 4.76198 2.153C4.99498 2.122 5.24198 2.097 5.50098 2.077V1.25C5.50098 1.05126 5.57986 0.860647 5.72029 0.720023C5.86073 0.5794 6.05124 0.500265 6.24998 0.5ZM4.95998 3.64C3.95498 3.775 3.37498 4.029 2.95198 4.452C2.52898 4.875 2.27498 5.455 2.13998 6.461C2.11698 6.631 2.09798 6.811 2.08198 7H20.418C20.402 6.81 20.383 6.631 20.36 6.46C20.225 5.455 19.971 4.875 19.548 4.452C19.125 4.029 18.545 3.775 17.539 3.64C16.512 3.502 15.157 3.5 13.25 3.5H9.24998C7.34298 3.5 5.98898 3.502 4.95998 3.64ZM1.99998 10.75C1.99998 9.896 1.99998 9.153 2.01298 8.5H20.487C20.5 9.153 20.5 9.896 20.5 10.75V12.75C20.5 14.657 20.498 16.012 20.36 17.04C20.225 18.045 19.971 18.625 19.548 19.048C19.125 19.471 18.545 19.725 17.539 19.86C16.512 19.998 15.157 20 13.25 20H9.24998C7.34298 20 5.98898 19.998 4.95998 19.86C3.95498 19.725 3.37498 19.471 2.95198 19.048C2.52898 18.625 2.27498 18.045 2.13998 17.039C2.00198 16.012 1.99998 14.657 1.99998 12.75V10.75Z" fill="#040404"/>
</svg>
