<svg width="27" height="24" viewBox="0 0 27 24" fill="none" xmlns="http://www.w3.org/2000/svg">
<path d="M13.555 0.555908C13.3527 0.44044 13.2515 0.382706 13.1441 0.360097C13.049 0.34009 12.9508 0.34009 12.8558 0.360097C12.7483 0.382706 12.6472 0.44044 12.4448 0.555908L0.990997 7.09206C0.432262 7.4109 0.152894 7.57032 0.0594935 7.77903C-0.0219589 7.96104 -0.0219215 8.16915 0.0595961 8.35113C0.153072 8.55981 0.432497 8.71913 0.991346 9.03777L3.70742 10.5864C3.91327 10.7038 4.0162 10.7625 4.09109 10.845C4.15734 10.918 4.20742 11.0042 4.23805 11.098C4.27266 11.2039 4.27266 11.3224 4.27266 11.5594V18.0845C4.27266 18.3214 4.27266 18.4398 4.30723 18.5457C4.33782 18.6393 4.38785 18.7255 4.45404 18.7985C4.52886 18.8811 4.63169 18.9398 4.83735 19.0572L12.4446 23.4004C12.647 23.5159 12.7482 23.5737 12.8557 23.5963C12.9508 23.6164 13.049 23.6164 13.1441 23.5963C13.2516 23.5737 13.3528 23.5159 13.5552 23.4004L21.1625 19.0572C21.3682 18.9398 21.471 18.8811 21.5458 18.7985C21.612 18.7255 21.662 18.6393 21.6926 18.5457C21.7272 18.4398 21.7272 18.3214 21.7272 18.0845V11.5594C21.7272 11.3224 21.7272 11.2039 21.7618 11.098C21.7924 11.0042 21.8425 10.918 21.9088 10.845C21.9837 10.7625 22.0866 10.7038 22.2924 10.5864L22.546 10.4419C23.096 10.1282 23.371 9.97143 23.5965 9.99599C23.7932 10.0174 23.9716 10.1211 24.0877 10.2813C24.2207 10.4651 24.2207 10.7816 24.2207 11.4148V17.38C24.2207 17.772 24.2207 17.9681 24.297 18.1178C24.3641 18.2495 24.4712 18.3566 24.6029 18.4237C24.7527 18.5 24.9487 18.5 25.3407 18.5H25.5942C25.9863 18.5 26.1823 18.5 26.332 18.4237C26.4637 18.3566 26.5708 18.2495 26.6379 18.1178C26.7142 17.9681 26.7142 17.772 26.7142 17.38V8.71562C26.7142 8.47875 26.7142 8.36031 26.6796 8.2544C26.649 8.1607 26.599 8.07452 26.5328 8.0015C26.4579 7.91897 26.3551 7.86027 26.1493 7.74286L13.555 0.555908ZM19.7981 7.09246C20.3567 7.41119 20.6359 7.57056 20.7294 7.77922C20.8108 7.96119 20.8108 8.16926 20.7294 8.35123C20.6359 8.55989 20.3567 8.71925 19.7981 9.03798L13.555 12.6006C13.3527 12.7161 13.2515 12.7738 13.1441 12.7964C13.049 12.8164 12.9508 12.8164 12.8558 12.7964C12.7483 12.7738 12.6472 12.7161 12.4448 12.6006L6.20172 9.03798C5.64318 8.71925 5.36391 8.55989 5.27051 8.35123C5.18905 8.16926 5.18905 7.96119 5.27051 7.77922C5.36391 7.57056 5.64318 7.41119 6.20171 7.09246L12.4448 3.52982C12.6472 3.41435 12.7483 3.35662 12.8558 3.33401C12.9508 3.314 13.049 3.314 13.1441 3.33401C13.2515 3.35662 13.3527 3.41435 13.555 3.52982L19.7981 7.09246ZM19.2337 16.5444C19.2337 16.7816 19.2337 16.9002 19.199 17.0062C19.1684 17.1 19.1182 17.1862 19.0519 17.2593C18.9769 17.3418 18.8738 17.4005 18.6677 17.5178L13.5539 20.4282C13.352 20.5431 13.251 20.6006 13.1438 20.6231C13.0489 20.643 12.9509 20.643 12.8561 20.6231C12.7489 20.6006 12.6479 20.5431 12.4459 20.4282L7.33218 17.5178C7.12605 17.4005 7.02299 17.3418 6.948 17.2593C6.88165 17.1862 6.8315 17.1 6.80083 17.0062C6.76616 16.9002 6.76616 16.7816 6.76616 16.5444V14.2601C6.76616 13.6264 6.76616 13.3095 6.89928 13.1258C7.01541 12.9655 7.19396 12.8618 7.39075 12.8405C7.61634 12.8161 7.89145 12.9732 8.44169 13.2875L12.4444 15.574C12.6469 15.6896 12.7481 15.7475 12.8557 15.7701C12.9508 15.7902 13.0491 15.7902 13.1442 15.7701C13.2517 15.7475 13.353 15.6896 13.5555 15.574L17.5582 13.2875C18.1084 12.9732 18.3835 12.8161 18.6091 12.8405C18.8059 12.8618 18.9845 12.9655 19.1006 13.1258C19.2337 13.3095 19.2337 13.6264 19.2337 14.2601V16.5444Z" fill="#2F80F8"/>
</svg>
