<svg width="20" height="18" viewBox="0 0 20 18" fill="none" xmlns="http://www.w3.org/2000/svg">
<path d="M0.249234 0H15.446C15.669 0 15.7804 0.280256 15.623 0.433727L12.7699 3.26296C12.724 3.30968 12.6585 3.33637 12.5929 3.33637H0.249234C0.111499 3.33637 0 3.22293 0 3.0828V0.253563C0 0.113438 0.111499 0 0.249234 0Z" fill="white"/>
<path d="M7.66724 8.68113L8.72976 9.7354C8.88714 9.89558 8.78222 10.1692 8.55266 10.1692H0.249234C0.111499 10.1692 0 10.0557 0 9.91559V7.08634C0 6.94622 0.111499 6.83276 0.249234 6.83276H8.5461C8.76911 6.83276 8.88058 7.11305 8.7232 7.26653L7.66724 8.30744C7.56883 8.40754 7.56883 8.57438 7.66724 8.67448V8.68113Z" fill="white"/>
<path d="M12.7699 13.752L15.623 16.5812C15.7804 16.7414 15.6755 17.0149 15.446 17.0149H0.249234C0.111499 17.0149 0 16.9015 0 16.7614V13.9321C0 13.792 0.111499 13.6786 0.249234 13.6786H12.5929C12.6585 13.6786 12.7175 13.7053 12.7699 13.752Z" fill="white"/>
<path d="M19.2433 16.5947L11.2809 8.68751C11.1826 8.58741 11.1826 8.42058 11.2809 8.32048L19.2499 0.419986C19.4073 0.259841 19.6762 0.379951 19.6762 0.60015V16.4078C19.6696 16.6348 19.4007 16.7482 19.2433 16.588V16.5947Z" fill="#448FFF"/>
</svg>
