<svg width="22" height="22" viewBox="0 0 22 22" fill="none" xmlns="http://www.w3.org/2000/svg">
<path d="M19.8 4.92105C20.438 4.92105 20.955 5.14211 21.362 5.57316C21.78 6.02632 22 6.52368 22 7.13158V19.2895C22 19.8974 21.78 20.3947 21.362 20.8479C20.955 21.2789 20.438 21.5 19.8 21.5H2.2C1.562 21.5 1.045 21.2789 0.638 20.8479C0.22 20.3947 0 19.8974 0 19.2895V7.13158C0 6.52368 0.22 6.02632 0.638 5.57316C1.045 5.14211 1.562 4.92105 2.2 4.92105H5.48C5.87204 4.92105 6.06806 4.92105 6.21779 4.84476C6.34951 4.77765 6.45659 4.67056 6.5237 4.53885C6.6 4.38911 6.6 4.19309 6.6 3.80105V2.71053C6.6 2.06947 6.82 1.55 7.238 1.14105C7.645 0.721053 8.162 0.5 8.8 0.5H13.2C13.838 0.5 14.355 0.721053 14.762 1.14105C15.18 1.55 15.4 2.06947 15.4 2.71053V3.80105C15.4 4.19309 15.4 4.38911 15.4763 4.53885C15.5434 4.67056 15.6505 4.77765 15.7822 4.84476C15.9319 4.92105 16.128 4.92105 16.52 4.92105H19.8ZM3.32 7.13158C2.92796 7.13158 2.73194 7.13158 2.58221 7.20787C2.45049 7.27499 2.34341 7.38207 2.2763 7.51379C2.2 7.66352 2.2 7.85954 2.2 8.25158V18.1695C2.2 18.5615 2.2 18.7575 2.2763 18.9073C2.34341 19.039 2.45049 19.1461 2.58221 19.2132C2.73194 19.2895 2.92796 19.2895 3.32 19.2895H18.68C19.072 19.2895 19.2681 19.2895 19.4178 19.2132C19.5495 19.1461 19.6566 19.039 19.7237 18.9073C19.8 18.7575 19.8 18.5615 19.8 18.1695V8.25158C19.8 7.85954 19.8 7.66352 19.7237 7.51379C19.6566 7.38207 19.5495 7.27499 19.4178 7.20787C19.2681 7.13158 19.072 7.13158 18.68 7.13158H3.32ZM12.0947 4.92105C12.4729 4.92105 12.6619 4.92105 12.8074 4.84993C12.9474 4.78152 13.0605 4.66841 13.1289 4.52849C13.2 4.383 13.2 4.19393 13.2 3.81579C13.2 3.43765 13.2 3.24858 13.1289 3.10309C13.0605 2.96317 12.9474 2.85006 12.8074 2.78165C12.6619 2.71053 12.4729 2.71053 12.0947 2.71053H9.90526C9.52712 2.71053 9.33805 2.71053 9.19256 2.78165C9.05264 2.85006 8.93953 2.96317 8.87113 3.10309C8.8 3.24858 8.8 3.43765 8.8 3.81579C8.8 4.19393 8.8 4.383 8.87113 4.52849C8.93953 4.66841 9.05264 4.78152 9.19256 4.84993C9.33805 4.92105 9.52712 4.92105 9.90526 4.92105H12.0947Z" fill="#2F80F8"/>
</svg>
