<svg width="20" height="17" viewBox="0 0 20 17" fill="none" xmlns="http://www.w3.org/2000/svg">
<path d="M3.74984 14.5145L3.75003 14.5145C3.75204 14.6955 3.81851 14.8721 3.94057 15.0065C4.06316 15.1415 4.23341 15.2241 4.41725 15.2301C4.60118 15.236 4.77643 15.1646 4.90705 15.037C5.03706 14.91 5.11329 14.7374 5.12534 14.5568L5.12598 14.5472L5.12579 14.5472C5.1589 13.3756 5.6125 12.2676 6.38517 11.4569C7.15724 10.6469 8.18633 10.1978 9.25322 10.1978C10.3201 10.1978 11.3492 10.6469 12.1213 11.4569C12.8939 12.2676 13.3476 13.3756 13.3807 14.5472L13.3808 14.552L13.3808 14.552C13.3895 14.7351 13.4641 14.9111 13.5944 15.0411C13.7252 15.1717 13.9024 15.2453 14.0887 15.2394C14.2749 15.2335 14.4471 15.1489 14.5699 15.011C14.6922 14.8738 14.7571 14.6939 14.7558 14.5106L14.7558 14.5054L14.7557 14.5054C14.7226 13.3248 14.3636 12.1804 13.7229 11.2194C13.1612 10.3768 12.4047 9.70822 11.5296 9.27947C11.851 8.97776 12.1181 8.61437 12.317 8.20752C12.5786 7.67216 12.7148 7.07679 12.7145 6.47312L3.74984 14.5145ZM3.74984 14.5145L3.75012 14.5047M3.74984 14.5145L3.75012 14.5047M3.75012 14.5047C3.78337 13.3243 4.14241 12.18 4.78313 11.2191C5.34488 10.3766 6.1013 9.7081 6.97641 9.2794C6.63084 8.95489 6.34835 8.55935 6.14581 8.1156C5.88381 7.54157 5.76386 6.90514 5.7967 6.26772C5.82954 5.6303 6.01416 5.01172 6.33398 4.47195C6.65385 3.9321 7.09871 3.4885 7.62712 3.18615C8.15572 2.8837 8.74913 2.73343 9.34948 2.75145C9.94982 2.76946 10.5343 2.95506 11.0461 3.28844C11.5577 3.6217 11.9788 4.09086 12.2703 4.64862C12.5617 5.20629 12.7143 5.83469 12.7145 6.47303L3.75012 14.5047ZM10.7209 4.8564C10.328 4.43137 9.79947 4.1967 9.25293 4.1967C8.7064 4.1967 8.17787 4.43137 7.78494 4.8564C7.3914 5.28208 7.16726 5.86335 7.16726 6.47317C7.16726 7.08299 7.3914 7.66426 7.78494 8.08994C8.17787 8.51497 8.7064 8.74964 9.25293 8.74964C9.79947 8.74964 10.328 8.51497 10.7209 8.08994C11.1145 7.66426 11.3386 7.08299 11.3386 6.47317C11.3386 5.86335 11.1145 5.28208 10.7209 4.8564Z" fill="#FF2A54" stroke="#FF2A54" stroke-width="0.5"/>
<path d="M15 9.00004L16 10.0001L18 8" stroke="#FF2A54" stroke-linecap="round" stroke-linejoin="round"/>
</svg>
