<svg width="123" height="23" viewBox="0 0 123 23" fill="none" xmlns="http://www.w3.org/2000/svg">
<mask id="mask0_1470_2842" style="mask-type:luminance" maskUnits="userSpaceOnUse" x="0" y="0" width="123" height="23">
<path d="M122.5 0.5H0.5V22.5H122.5V0.5Z" fill="white"/>
</mask>
<g mask="url(#mask0_1470_2842)">
<path d="M34.5007 0.5C34.7237 0.5 34.8352 0.613436 34.8352 0.840309V3.25584C34.8352 3.48271 34.7237 3.59615 34.5007 3.59615H26.5384V7.86005H33.812C34.0351 7.86005 34.1663 7.97345 34.1663 8.20031V10.5024C34.1663 10.7293 34.0351 10.8427 33.812 10.8427H26.5384V14.8797H34.5007C34.7237 14.8797 34.8352 14.9932 34.8352 15.22V17.6356C34.8352 17.8625 34.7237 17.9759 34.5007 17.9759H23.3901C23.1671 17.9759 23.0557 17.8625 23.0557 17.6156V0.840309C23.0557 0.613436 23.1671 0.5 23.3901 0.5H34.5007Z" fill="#040404"/>
<path d="M47.9403 5.33105C48.2092 5.33105 48.2748 5.51122 48.0977 5.73809L44.2805 11.3565L48.4912 17.5355C48.6486 17.7623 48.5765 17.9625 48.3142 17.9625H45.12C44.9626 17.9625 44.8511 17.8691 44.7658 17.7357L42.2604 13.9455L39.7353 17.7357C39.6696 17.8691 39.5582 17.9625 39.3811 17.9625H36.2066C35.9377 17.9625 35.8721 17.7623 36.0295 17.5355L40.2402 11.3565L36.4034 5.73809C36.2263 5.51122 36.3115 5.33105 36.5804 5.33105H39.7549C39.932 5.33105 40.0435 5.39778 40.155 5.53123L42.2604 8.73416L44.3657 5.53123C44.4576 5.39778 44.5887 5.33105 44.7658 5.33105H47.9337H47.9403Z" fill="#040404"/>
<path d="M61.1096 11.4634C61.1096 16.6548 60.0208 18.0761 55.9872 18.0761C55.0559 18.0761 54.2095 18.0561 53.2584 17.9427V22.1598C53.2584 22.3867 53.1471 22.5002 52.9239 22.5002H50.3072C50.0842 22.5002 49.9727 22.3867 49.9727 22.1598V6.20534C49.9727 5.89174 50.1498 5.71155 50.4383 5.64482C52.255 5.35122 53.7896 5.21777 55.3182 5.21777C59.9943 5.21777 61.1096 6.57232 61.1096 11.4701V11.4634ZM53.2584 8.10038V15.0267C53.9015 15.1135 54.6751 15.1601 55.2526 15.1601C57.4954 15.1601 57.8238 14.5529 57.8238 11.6369C57.8238 8.97451 57.6464 8.09373 55.4753 8.09373H53.2584V8.10038Z" fill="#040404"/>
<path d="M74.0177 11.49V12.1906C74.0177 12.6443 73.8865 12.7978 73.3095 12.7978H66.3444C66.3901 14.8264 66.9213 15.1867 68.8494 15.1867H72.7783C73.0015 15.1867 73.1128 15.3001 73.1128 15.527V17.402C73.1128 17.6489 73.0015 17.7423 72.8048 17.7623C71.6305 18.0092 70.0303 18.076 68.5673 18.076C64.0879 18.076 62.999 16.7881 62.999 11.6434C62.999 6.4988 64.0879 5.21094 68.5673 5.21094C73.0473 5.21094 73.9983 6.45207 74.0243 11.4833L74.0177 11.49ZM66.3245 10.6092H70.7186C70.6993 8.6207 70.1874 8.10689 68.5673 8.10689C66.9478 8.10689 66.3505 8.6274 66.3245 10.6092Z" fill="#040404"/>
<path d="M83.0226 5.4645C83.2656 5.53123 83.3769 5.62465 83.3769 5.91826V7.76657C83.3769 7.99349 83.2457 8.10689 82.9966 8.10689H80.911C79.7565 8.10689 79.3565 8.28708 79.3565 9.25461V17.6022C79.3565 17.8491 79.2451 17.9625 79.022 17.9625H76.3853C76.1621 17.9625 76.0508 17.8491 76.0508 17.6022V8.39383C76.0508 5.55125 78.0445 5.21094 80.0646 5.21094C80.7076 5.21094 82.2357 5.27767 83.016 5.45783L83.0226 5.4645Z" fill="#040404"/>
<path d="M88.7038 1.83421C88.927 1.76749 89.0581 1.92096 89.0581 2.17452V5.39746H91.0975C91.3405 5.39746 91.4783 5.51089 91.4783 5.73776V7.54606C91.4783 7.77297 91.3471 7.88637 91.0975 7.88637H89.0581V14.0453C89.0581 15.0129 89.3926 15.193 90.3696 15.193H91.2816C91.5505 15.193 91.6618 15.2864 91.6618 15.5333V17.4484C91.6618 17.722 91.5505 17.8288 91.3075 17.8755C90.5338 18.0356 89.9106 18.0756 89.4251 18.0756C87.5168 18.0756 85.7849 18.0089 85.7849 15.1663V7.87972H84.4734C84.2305 7.87972 84.1191 7.76626 84.1191 7.5394V5.73109C84.1191 5.50422 84.2305 5.39078 84.4734 5.39078H85.7849V2.88851C85.7849 2.66164 85.877 2.57489 86.0935 2.52818L88.7104 1.82754L88.7038 1.83421Z" fill="#040404"/>
<path d="M96.7957 16.2478C96.7957 17.3955 96.0876 18.0761 94.8676 18.0761C93.6476 18.0761 92.9395 17.4022 92.9395 16.2478C92.9395 15.0934 93.6277 14.4395 94.8676 14.4395C96.1074 14.4395 96.7957 15.0934 96.7957 16.2478Z" fill="#448FFF"/>
<path d="M109.546 5.33089C109.769 5.33089 109.854 5.44433 109.854 5.6712V17.3084C109.854 17.6021 109.769 17.6487 109.546 17.6955C108.038 17.9891 105.886 18.0758 104.221 18.0758C99.9639 18.0758 98.875 17.2618 98.875 12.6375V5.66453C98.875 5.43766 99.0062 5.32422 99.2293 5.32422H101.846C102.069 5.32422 102.155 5.43766 102.155 5.66453V11.7767C102.155 15.0264 102.509 15.1865 104.549 15.1865H106.542V5.66453C106.542 5.43766 106.654 5.32422 106.877 5.32422H109.54L109.546 5.33089Z" fill="#040404"/>
<path d="M121.838 5.33105C122.08 5.33105 122.212 5.44449 122.212 5.67136V7.2061C122.212 7.38624 122.146 7.4997 122.054 7.63317L116.597 15.0799H122.12C122.362 15.0799 122.493 15.1934 122.493 15.4202V17.6089C122.493 17.8558 122.362 17.9692 122.12 17.9692H112.229C111.96 17.9692 111.829 17.8558 111.829 17.6089V16.1409C111.829 15.9808 111.875 15.8673 111.986 15.7138L117.621 8.15362H112.478C112.209 8.15362 112.098 8.04017 112.098 7.8133V5.67136C112.098 5.44449 112.209 5.33105 112.478 5.33105H121.838Z" fill="#040404"/>
<path d="M0.749234 0.947266H15.946C16.169 0.947266 16.2804 1.22752 16.123 1.38099L13.2699 4.21023C13.224 4.25694 13.1585 4.28363 13.0929 4.28363H0.749234C0.611499 4.28363 0.5 4.17019 0.5 4.03007V1.20083C0.5 1.0607 0.611499 0.947266 0.749234 0.947266Z" fill="#040404"/>
<path d="M8.16724 9.6284L9.22976 10.6827C9.38714 10.8428 9.28222 11.1164 9.05266 11.1164H0.749234C0.611499 11.1164 0.5 11.003 0.5 10.8629V8.03361C0.5 7.89349 0.611499 7.78003 0.749234 7.78003H9.0461C9.26911 7.78003 9.38058 8.06032 9.2232 8.2138L8.16724 9.25471C8.06883 9.35481 8.06883 9.52164 8.16724 9.62174V9.6284Z" fill="#040404"/>
<path d="M13.2699 14.6994L16.123 17.5286C16.2804 17.6887 16.1755 17.9623 15.946 17.9623H0.749234C0.611499 17.9623 0.5 17.8489 0.5 17.7088V14.8795C0.5 14.7394 0.611499 14.626 0.749234 14.626H13.0929C13.1585 14.626 13.2175 14.6526 13.2699 14.6994Z" fill="#040404"/>
<path d="M19.7432 17.5419L11.7808 9.63478C11.6824 9.53468 11.6824 9.36785 11.7808 9.26775L19.7497 1.36725C19.9072 1.20711 20.1761 1.32722 20.1761 1.54742V17.3551C20.1695 17.582 19.9006 17.6954 19.7432 17.5353V17.5419Z" fill="#448FFF"/>
</g>
</svg>
