<svg width="19" height="18" viewBox="0 0 19 18" fill="none" xmlns="http://www.w3.org/2000/svg">
<path d="M1.87089 1.9842C2.3324 1.51343 2.88033 1.14003 3.48336 0.885368C4.0864 0.630701 4.73272 0.49975 5.38539 0.5C6.03806 0.50025 6.68429 0.631696 7.28714 0.886825C7.88999 1.14195 8.43764 1.51576 8.8988 1.98689L9.50078 2.60844L10.0978 1.98824L10.1016 1.98428C10.5629 1.51373 11.1105 1.14046 11.7133 0.885797C12.316 0.631134 12.9619 0.50006 13.6143 0.50006C14.2666 0.50006 14.9126 0.631134 15.5153 0.885797C16.118 1.14046 16.6657 1.51373 17.1269 1.98428L17.3951 2.25784C18.3267 3.20816 18.8501 4.49708 18.8501 5.84103C18.8501 7.18499 18.3267 8.4739 17.3951 9.42422L10.3173 16.6441L9.51801 17.4984L9.49896 17.4789L9.47827 17.5L8.7294 16.694L1.60272 9.4241C0.672504 8.47303 0.150097 7.1844 0.150097 5.84091C0.150097 4.49743 0.672504 3.2088 1.60272 2.25772L1.87089 1.9842ZM2.48105 8.52832L9.49896 15.6873L16.517 8.52832C17.2157 7.81558 17.6082 6.8489 17.6082 5.84093C17.6082 4.83297 17.2157 3.86629 16.517 3.15355L16.2488 2.87999C15.5504 2.1676 14.6034 1.76722 13.6157 1.76684C12.6281 1.76646 11.6807 2.16612 10.9818 2.87797L9.50346 4.41351L8.01806 2.87999C7.67209 2.52707 7.26137 2.24712 6.80934 2.05612C6.35732 1.86512 5.87284 1.76682 5.38357 1.76682C4.89429 1.76682 4.40982 1.86512 3.95779 2.05612C3.50576 2.24712 3.09504 2.52707 2.74907 2.87999L2.4809 3.15351C1.78325 3.86683 1.39146 4.83332 1.39149 5.84095C1.39152 6.84857 1.78336 7.81503 2.48105 8.52832Z" fill="black"/>
</svg>
