<svg width="58" height="40" viewBox="0 0 58 40" fill="none" xmlns="http://www.w3.org/2000/svg">
<path d="M16.9083 34.3959V32.4765C16.9083 31.7406 16.452 31.2609 15.6699 31.2609C15.2789 31.2609 14.8552 31.3888 14.5619 31.8047C14.3339 31.4528 14.0081 31.2609 13.5193 31.2609C13.1933 31.2609 12.8677 31.3567 12.6069 31.7087V31.3248H11.9226V34.3959H12.6069V32.7004C12.6069 32.1566 12.9002 31.9006 13.3565 31.9006C13.8125 31.9006 14.0408 32.1886 14.0408 32.7004V34.3959H14.7251V32.7004C14.7251 32.1566 15.0507 31.9006 15.4744 31.9006C15.9307 31.9006 16.1587 32.1886 16.1587 32.7004V34.3959H16.9083ZM27.0423 31.3248H25.9345V30.3971H25.2502V31.3248H24.631V31.9325H25.25V33.3403C25.25 34.0441 25.5433 34.4599 26.3255 34.4599C26.6188 34.4599 26.9444 34.364 27.1727 34.236L26.9771 33.6601C26.7816 33.7881 26.5536 33.8201 26.3906 33.8201C26.0648 33.8201 25.9345 33.6282 25.9345 33.3082V31.9325H27.0423V31.3248ZM32.8426 31.2607C32.4516 31.2607 32.191 31.4528 32.028 31.7087V31.3248H31.3437V34.3959H32.028V32.6684C32.028 32.1566 32.256 31.8687 32.6796 31.8687C32.8099 31.8687 32.9729 31.9007 33.1033 31.9327L33.2988 31.2929C33.1684 31.2609 32.9729 31.2607 32.8426 31.2607ZM24.0771 31.5807C23.7511 31.3567 23.295 31.2609 22.8061 31.2609C22.0242 31.2609 21.5029 31.6447 21.5029 32.2525C21.5029 32.7645 21.8939 33.0523 22.5781 33.1483L22.904 33.1804C23.2624 33.2442 23.4579 33.3403 23.4579 33.5003C23.4579 33.7241 23.1973 33.8841 22.741 33.8841C22.2848 33.8841 21.9264 33.7241 21.6982 33.5642L21.3724 34.076C21.7309 34.3319 22.2197 34.4599 22.7083 34.4599C23.6208 34.4599 24.1422 34.0441 24.1422 33.4682C24.1422 32.9243 23.7186 32.6364 23.0668 32.5405L22.741 32.5084C22.4477 32.4764 22.2197 32.4125 22.2197 32.2206C22.2197 31.9966 22.4477 31.8687 22.8061 31.8687C23.1973 31.8687 23.5883 32.0286 23.7838 32.1246L24.0771 31.5807ZM42.2599 31.2609C41.8688 31.2609 41.6081 31.4528 41.4452 31.7087V31.3248H40.7609V34.3959H41.4452V32.6684C41.4452 32.1566 41.6733 31.8687 42.0968 31.8687C42.2273 31.8687 42.3903 31.9007 42.5206 31.9327L42.7161 31.2929C42.5857 31.2609 42.3903 31.2609 42.2599 31.2609ZM33.5269 32.8604C33.5269 33.7881 34.1785 34.4599 35.1888 34.4599C35.645 34.4599 35.9708 34.364 36.2966 34.1081L35.9708 33.5642C35.7101 33.7562 35.4495 33.8521 35.1562 33.8521C34.6022 33.8521 34.2112 33.4682 34.2112 32.8604C34.2112 32.2846 34.6022 31.9006 35.1562 31.8687C35.4495 31.8687 35.7101 31.9646 35.9708 32.1566L36.2966 31.6128C35.9708 31.3567 35.645 31.2609 35.1888 31.2609C34.1785 31.2609 33.5269 31.9327 33.5269 32.8604ZM39.8486 31.3248H39.1643V31.7087C38.9361 31.4209 38.6103 31.2609 38.1866 31.2609C37.3069 31.2609 36.6226 31.9327 36.6226 32.8604C36.6226 33.7881 37.3069 34.4599 38.1866 34.4599C38.6428 34.4599 38.9688 34.3 39.1643 34.0121V34.3959H39.8486V31.3248ZM37.3394 32.8604C37.3394 32.3165 37.6978 31.8687 38.2843 31.8687C38.8383 31.8687 39.2294 32.2846 39.2294 32.8604C39.2294 33.4042 38.8383 33.8521 38.2843 33.8521C37.6978 33.82 37.3394 33.4042 37.3394 32.8604ZM29.1605 31.2609C28.248 31.2609 27.5962 31.9006 27.5962 32.8604C27.5962 33.8201 28.2479 34.4599 29.193 34.4599C29.6491 34.4599 30.1054 34.3319 30.4639 34.0441L30.1379 33.5642C29.8773 33.7562 29.5514 33.8841 29.2256 33.8841C28.802 33.8841 28.3783 33.6922 28.2805 33.1482H30.5942V32.8924C30.6269 31.9006 30.0404 31.2609 29.1605 31.2609ZM29.1605 31.8366C29.584 31.8366 29.8774 32.0927 29.9424 32.5726H28.3132C28.3783 32.1566 28.6717 31.8366 29.1605 31.8366ZM46.1376 30.1092H45.4533V31.7087C45.2251 31.4209 44.8993 31.2609 44.4757 31.2609C43.5959 31.2609 42.9116 31.9327 42.9116 32.8604C42.9116 33.7881 43.5959 34.4599 44.4757 34.4599C44.9319 34.4599 45.2578 34.3 45.4533 34.0121V34.3959H46.1376V30.1092ZM43.6285 32.8604C43.6285 32.3165 43.9868 31.8687 44.5735 31.8687C45.1274 31.8687 45.5184 32.2846 45.5184 32.8604C45.5184 33.4042 45.1274 33.8521 44.5735 33.8521C43.9868 33.82 43.6285 33.4042 43.6285 32.8604ZM20.7533 31.3248H20.069V31.7087C19.8408 31.4209 19.515 31.2609 19.0914 31.2609C18.2116 31.2609 17.5273 31.9327 17.5273 32.8604C17.5273 33.7881 18.2116 34.4599 19.0914 34.4599C19.5476 34.4599 19.8735 34.3 20.069 34.0121V34.3959H20.7533V31.3248ZM18.2116 32.8604C18.2116 32.3165 18.57 31.8687 19.1565 31.8687C19.7105 31.8687 20.1016 32.2846 20.1016 32.8604C20.1016 33.4042 19.7105 33.8521 19.1565 33.8521C18.57 33.82 18.2116 33.4042 18.2116 32.8604Z" fill="white"/>
<path d="M23.8489 8.00329H34.1134V26.1102H23.8489V8.00329Z" fill="#FF5F00"/>
<path d="M24.5007 17.0568C24.5007 13.3779 26.2603 10.1148 28.9648 8.00329C26.9772 6.46775 24.4682 5.54004 21.731 5.54004C15.2462 5.54004 10 10.6905 10 17.0568C10 23.423 15.2462 28.5736 21.7309 28.5736C24.4681 28.5736 26.9771 27.6459 28.9648 26.1102C26.2603 24.0308 24.5007 20.7357 24.5007 17.0568Z" fill="#EB001B"/>
<path d="M47.9623 17.0568C47.9623 23.423 42.7161 28.5736 36.2314 28.5736C33.4942 28.5736 30.9852 27.6459 28.9975 26.1102C31.7347 23.9989 33.4617 20.7357 33.4617 17.0568C33.4617 13.3779 31.702 10.1148 28.9975 8.00329C30.9851 6.46775 33.4942 5.54004 36.2314 5.54004C42.7161 5.54004 47.9623 10.7226 47.9623 17.0568Z" fill="#F79E1B"/>
</svg>
