<svg width="20" height="18" viewBox="0 0 20 18" fill="none" xmlns="http://www.w3.org/2000/svg">
<path d="M18.5912 6.2706C18.926 6.91858 19.1006 7.64122 19.1 8.37484C19.1005 9.53027 18.6651 10.6407 17.8857 11.4723V15.8745V15.8746H17.7857C17.7858 15.9812 17.7594 16.086 17.709 16.1791C17.6586 16.2722 17.5859 16.3505 17.4979 16.4066C17.4098 16.4626 17.3093 16.4946 17.2058 16.4994C17.1024 16.5042 16.9995 16.4816 16.9069 16.4339L18.5912 6.2706ZM18.5912 6.2706C18.2564 5.62259 17.7717 5.06901 17.1796 4.65888C16.5874 4.24874 15.9061 3.99471 15.1957 3.91943C14.4853 3.84415 13.7679 3.94997 13.1068 4.22743C12.4457 4.50489 11.8613 4.94539 11.4051 5.50982C10.949 6.07423 10.6349 6.74527 10.4903 7.46372C10.3457 8.18216 10.3751 8.92616 10.5758 9.6302C10.7729 10.3212 11.1291 10.9531 11.6143 11.4722M11.6143 15.8745C11.6142 15.9976 11.6447 16.1188 11.703 16.2267C11.7614 16.3346 11.8458 16.4256 11.9484 16.491C12.0511 16.5563 12.1685 16.5937 12.2896 16.5993C12.4106 16.6049 12.5309 16.5785 12.6389 16.5228L14.75 15.4355L11.7143 11.4325M11.6143 15.8745L11.7143 15.8746H11.6143V15.8745ZM11.6143 15.8745V11.4722M11.6143 11.4722C11.6234 11.482 11.6326 11.4918 11.6419 11.5015L11.7143 11.4325M11.6143 11.4722V11.4325H11.7143M15.0675 13.9764L15.0675 13.9763C14.9691 13.9257 14.8603 13.8992 14.75 13.8992C14.6396 13.8992 14.5309 13.9257 14.4325 13.9763L14.4325 13.9764L13.0286 14.6997V12.484C13.5716 12.725 14.1573 12.8497 14.75 12.8497C15.3427 12.8497 15.9284 12.725 16.4714 12.484V14.6997L15.0675 13.9764Z" fill="#F3F3F3" stroke="#F3F3F3" stroke-width="0.2"/>
</svg>
