<svg width="22" height="20" viewBox="0 0 22 20" fill="none" xmlns="http://www.w3.org/2000/svg">
<path d="M11.2662 12.3134C10.9308 12.8055 10.6089 13.2869 9.88767 13.7545C9.50188 14.0069 8.61391 14.5 7.35173 14.5C4.94366 14.5 3 12.8661 3 9.99363C3 7.48315 4.82836 5.5 7.40307 5.5C8.44617 5.5 9.37294 5.83653 10.0554 6.34137C10.6866 6.80997 10.9822 7.2787 11.2401 7.69938L9.43793 8.53976C9.30899 8.26384 9.15379 7.97523 8.75543 7.66314C8.31726 7.33832 7.88006 7.24246 7.50579 7.24246C6.03813 7.24246 5.26549 8.51631 5.26549 9.93395C5.26549 11.7968 6.28343 12.7213 7.50579 12.7213C8.69041 12.7213 9.1674 11.9523 9.47566 11.4602L11.2662 12.3134V12.3134ZM17.5794 5.76418H20L16.8455 14.2476H14.5287L11.413 5.76418H13.8336L15.7133 11.7968L17.5794 5.76418Z" fill="#F3F3F3"/>
</svg>
