<svg width="20" height="18" viewBox="0 0 20 18" fill="none" xmlns="http://www.w3.org/2000/svg">
<path d="M6.24398 15.0145L6.24417 15.0145C6.24618 15.1955 6.31265 15.3721 6.43471 15.5065C6.5573 15.6415 6.72755 15.7241 6.91139 15.7301C7.09532 15.736 7.27057 15.6646 7.40119 15.537C7.5312 15.41 7.60743 15.2374 7.61948 15.0568L7.62012 15.0472L7.61993 15.0472C7.65304 13.8756 8.10664 12.7676 8.87931 11.9569C9.65138 11.1469 10.6805 10.6978 11.7474 10.6978C12.8143 10.6978 13.8433 11.1469 14.6154 11.9569C15.3881 12.7676 15.8417 13.8756 15.8748 15.0472L15.8749 15.052L15.875 15.052C15.8836 15.2351 15.9583 15.4111 16.0885 15.5411C16.2194 15.6717 16.3965 15.7453 16.5828 15.7394C16.7691 15.7335 16.9412 15.6489 17.0641 15.511C17.1864 15.3738 17.2513 15.1939 17.25 15.0106L17.2499 15.0054L17.2499 15.0054C17.2168 13.8248 16.8578 12.6804 16.217 11.7194C15.6553 10.8768 14.8989 10.2082 14.0237 9.77947C14.3452 9.47776 14.6122 9.11437 14.8111 8.70752C15.0728 8.17216 15.2089 7.57679 15.2086 6.97312L6.24398 15.0145ZM6.24398 15.0145L6.24426 15.0047M6.24398 15.0145L6.24426 15.0047M6.24426 15.0047C6.27751 13.8243 6.63655 12.68 7.27728 11.7191C7.83902 10.8766 8.59544 10.2081 9.47055 9.7794C9.12498 9.45489 8.84249 9.05935 8.63995 8.6156C8.37795 8.04157 8.258 7.40514 8.29084 6.76772C8.32368 6.1303 8.5083 5.51172 8.82812 4.97195C9.14799 4.4321 9.59285 3.9885 10.1213 3.68615C10.6499 3.3837 11.2433 3.23343 11.8436 3.25145C12.444 3.26946 13.0284 3.45506 13.5402 3.78844C14.0519 4.1217 14.4729 4.59086 14.7644 5.14862C15.0559 5.70629 15.2085 6.33469 15.2086 6.97303L6.24426 15.0047ZM6.90633 7.22317H6.9064C6.97904 7.22317 7.04917 7.22836 7.118 7.23864C7.20973 7.25556 7.30375 7.25274 7.39434 7.23038C7.48677 7.20757 7.57279 7.16514 7.64754 7.1067C7.72222 7.0483 7.78401 6.97524 7.83013 6.89266C7.87624 6.8101 7.90602 6.71925 7.9184 6.62555C7.93077 6.53185 7.9256 6.43638 7.90306 6.34459C7.88052 6.25279 7.84087 6.16579 7.78563 6.08899C7.73037 6.01215 7.6604 5.94679 7.57909 5.89781C7.49927 5.84973 7.41047 5.81862 7.31778 5.80711C6.67859 5.70823 6.02825 5.84188 5.46954 6.18462C4.91 6.52786 4.47564 7.06012 4.23088 7.69436C3.98617 8.32846 3.94355 9.03149 4.10908 9.69386C4.24419 10.2345 4.51238 10.7254 4.88457 11.1151C4.28863 11.4722 3.78321 11.9821 3.4133 12.5998C2.97964 13.3239 2.74987 14.1666 2.75 15.0263L6.90633 7.22317ZM6.90633 7.22317C6.57009 7.22307 6.24096 7.34541 5.97233 7.57466C5.70329 7.80426 5.51051 8.12817 5.42923 8.49609C5.34793 8.86409 5.38388 9.25081 5.53028 9.59278C5.6766 9.93458 5.9233 10.2088 6.22657 10.375L6.22715 10.3753L6.46656 10.5073L6.59584 10.5786V10.7262V11.7848V11.9666M6.90633 7.22317L6.59584 11.9666M6.59584 11.9666L6.42292 12.0227M6.59584 11.9666L6.42292 12.0227M6.42292 12.0227L6.11144 12.1236L6.42292 12.0227ZM13.2151 5.3564C12.8221 4.93137 12.2936 4.6967 11.7471 4.6967C11.2005 4.6967 10.672 4.93137 10.2791 5.3564C9.88554 5.78208 9.66141 6.36335 9.66141 6.97317C9.66141 7.58299 9.88554 8.16426 10.2791 8.58994C10.672 9.01497 11.2005 9.24964 11.7471 9.24964C12.2936 9.24964 12.8221 9.01497 13.2151 8.58994C13.6086 8.16426 13.8327 7.58299 13.8327 6.97317C13.8327 6.36335 13.6086 5.78208 13.2151 5.3564ZM2.9447 15.531C2.81809 15.394 2.75001 15.2122 2.75 15.0263L4.12588 15.0263C4.12587 15.2122 4.05779 15.394 3.93118 15.531C3.80395 15.6686 3.62701 15.75 3.43794 15.75C3.24887 15.75 3.07192 15.6686 2.9447 15.531ZM4.68064 13.2114C4.32137 13.7342 4.12594 14.3706 4.12588 15.0263L6.11111 12.1237C5.54214 12.3091 5.03968 12.689 4.68064 13.2114Z" fill="#F3F3F3" stroke="#F3F3F3" stroke-width="0.5"/>
</svg>
