<svg width="20" height="18" viewBox="0 0 20 18" fill="none" xmlns="http://www.w3.org/2000/svg">
<path d="M3.74984 15.0145L3.75003 15.0145C3.75204 15.1955 3.81851 15.3721 3.94057 15.5065C4.06316 15.6415 4.23341 15.7241 4.41725 15.7301C4.60118 15.736 4.77643 15.6646 4.90705 15.537C5.03706 15.41 5.11329 15.2374 5.12534 15.0568L5.12598 15.0472L5.12579 15.0472C5.1589 13.8756 5.6125 12.7676 6.38517 11.9569C7.15724 11.1469 8.18633 10.6978 9.25322 10.6978C10.3201 10.6978 11.3492 11.1469 12.1213 11.9569C12.8939 12.7676 13.3476 13.8756 13.3807 15.0472L13.3808 15.052L13.3808 15.052C13.3895 15.2351 13.4641 15.4111 13.5944 15.5411C13.7252 15.6717 13.9024 15.7453 14.0887 15.7394C14.2749 15.7335 14.4471 15.6489 14.5699 15.511C14.6922 15.3738 14.7571 15.1939 14.7558 15.0106L14.7558 15.0054L14.7557 15.0054C14.7226 13.8248 14.3636 12.6804 13.7229 11.7194C13.1612 10.8768 12.4047 10.2082 11.5296 9.77947C11.851 9.47776 12.1181 9.11437 12.317 8.70752C12.5786 8.17216 12.7148 7.57679 12.7145 6.97312L3.74984 15.0145ZM3.74984 15.0145L3.75012 15.0047M3.74984 15.0145L3.75012 15.0047M3.75012 15.0047C3.78337 13.8243 4.14241 12.68 4.78313 11.7191C5.34488 10.8766 6.1013 10.2081 6.97641 9.7794C6.63084 9.45489 6.34835 9.05935 6.14581 8.6156C5.88381 8.04157 5.76386 7.40514 5.7967 6.76772C5.82954 6.1303 6.01416 5.51172 6.33398 4.97195C6.65385 4.4321 7.09871 3.9885 7.62712 3.68615C8.15572 3.3837 8.74913 3.23343 9.34948 3.25145C9.94982 3.26946 10.5343 3.45506 11.0461 3.78844C11.5577 4.1217 11.9788 4.59086 12.2703 5.14862C12.5617 5.70629 12.7143 6.33469 12.7145 6.97303L3.75012 15.0047ZM10.7209 5.3564C10.328 4.93137 9.79947 4.6967 9.25293 4.6967C8.7064 4.6967 8.17787 4.93137 7.78494 5.3564C7.3914 5.78208 7.16726 6.36335 7.16726 6.97317C7.16726 7.58299 7.3914 8.16426 7.78494 8.58994C8.17787 9.01497 8.7064 9.24964 9.25293 9.24964C9.79947 9.24964 10.328 9.01497 10.7209 8.58994C11.1145 8.16426 11.3386 7.58299 11.3386 6.97317C11.3386 6.36335 11.1145 5.78208 10.7209 5.3564Z" fill="#F3F3F3" stroke="#F3F3F3" stroke-width="0.5"/>
<path d="M15 9.50004L16 10.5001L18 8.5" stroke="#F3F3F3" stroke-linecap="round" stroke-linejoin="round"/>
</svg>
