<svg width="22" height="19" viewBox="0 0 22 19" fill="none" xmlns="http://www.w3.org/2000/svg">
<path d="M9.91402 4.80425C7.36605 3.0658 4.9906 4.39286 3 6.43655L7.40586 9.09068M15.1957 10.086C16.9342 12.6339 15.6071 15.0094 13.5635 17L10.9093 12.5941" stroke="#000" stroke-width="1.5" stroke-linecap="round" stroke-linejoin="round"/>
<path d="M9.65945 6.13509L13.8649 10.3405M8 8.98798L11.012 12C13.4216 10.5565 16.1609 9.15847 17.4111 7.86274C20.1163 5.1576 18.5477 1.45225 18.5477 1.45225C18.5477 1.45225 14.8424 -0.116268 12.1373 2.58886C10.8415 3.83914 9.43213 6.58973 8 8.98798Z" stroke="#000" stroke-width="1.5" stroke-linecap="round" stroke-linejoin="round"/>
<path d="M15.381 5.2381C15.5451 5.2381 15.7026 5.17287 15.8187 5.05678C15.9348 4.94069 16 4.78323 16 4.61905C16 4.45487 15.9348 4.29741 15.8187 4.18131C15.7026 4.06522 15.5451 4 15.381 4C15.2168 4 15.0593 4.06522 14.9432 4.18131C14.8271 4.29741 14.7619 4.45487 14.7619 4.61905C14.7619 4.78323 14.8271 4.94069 14.9432 5.05678C15.0593 5.17287 15.2168 5.2381 15.381 5.2381ZM6.93714 15.6876C6.21905 16.381 3 17 3 17C3 17 3.61905 13.781 4.31238 13.0629C4.56878 12.7888 4.90216 12.5987 5.26865 12.5177C5.63515 12.4368 6.01757 12.4687 6.36558 12.6092C6.71359 12.7498 7.01088 12.9925 7.21832 13.3053C7.42576 13.6181 7.53362 13.9863 7.52771 14.3616C7.52319 14.6108 7.46857 14.8564 7.36711 15.084C7.26565 15.3116 7.11942 15.5177 6.93714 15.6876Z" stroke="#000" stroke-width="1.5" stroke-linecap="round" stroke-linejoin="round"/>
</svg>
