<svg width="22" height="20" viewBox="0 0 22 20" fill="none" xmlns="http://www.w3.org/2000/svg">
<path d="M18.6089 6.05522L18.6081 6.05438C18.2921 5.72571 17.8895 5.55789 17.4 5.55789H14.3V4.07895C14.3 3.59528 14.1299 3.19819 13.8062 2.88671C13.4907 2.56734 13.0889 2.4 12.6 2.4H9.4C8.91109 2.4 8.50933 2.56734 8.19375 2.88671C7.87007 3.19819 7.7 3.59528 7.7 4.07895V5.55789H4.6C4.11046 5.55789 3.70789 5.72571 3.39191 6.05438L3.39191 6.05438L3.39111 6.05522C3.0722 6.39478 2.9 6.77375 2.9 7.23684V15.9211C2.9 16.3841 3.0722 16.7631 3.3911 17.1027L3.39191 17.1035C3.70789 17.4322 4.11046 17.6 4.6 17.6H17.4C17.8895 17.6 18.2921 17.4322 18.6081 17.1035L18.6089 17.1027C18.9278 16.7631 19.1 16.3841 19.1 15.9211V7.23684C19.1 6.77375 18.9278 6.39478 18.6089 6.05522ZM17.3 15.8211H4.7V7.33684H17.3V15.8211ZM9.5 4.17895H12.5V5.55789H9.5V4.17895Z" fill="#F3F3F3" stroke="#F3F3F3" stroke-width="0.2"/>
</svg>
