<svg width="20" height="18" viewBox="0 0 20 18" fill="none" xmlns="http://www.w3.org/2000/svg">
<path d="M0.253339 0H15.7004C15.9271 0 16.0404 0.296471 15.8803 0.458822L12.9803 3.45175C12.9336 3.50117 12.867 3.5294 12.8003 3.5294H0.253339C0.113336 3.5294 0 3.4094 0 3.26117V0.268233C0 0.120002 0.113336 0 0.253339 0Z" fill="#040404"/>
<path d="M7.79353 9.1843L8.87355 10.2996C9.03352 10.469 8.92688 10.7584 8.69353 10.7584H0.253339C0.113336 10.7584 0 10.6384 0 10.4902V7.49724C0 7.34901 0.113336 7.22899 0.253339 7.22899H8.68687C8.91355 7.22899 9.02686 7.5255 8.86689 7.68786L7.79353 8.789C7.6935 8.89489 7.6935 9.07137 7.79353 9.17727V9.1843Z" fill="#040404"/>
<path d="M12.9803 14.5482L15.8803 17.5412C16.0404 17.7106 15.9337 18 15.7004 18H0.253339C0.113336 18 0 17.88 0 17.7318V14.7388C0 14.5906 0.113336 14.4706 0.253339 14.4706H12.8003C12.867 14.4706 12.927 14.4988 12.9803 14.5482Z" fill="#040404"/>
<path d="M19.56 17.5553L11.4664 9.19068C11.3665 9.08479 11.3665 8.90831 11.4664 8.80241L19.5666 0.444811C19.7267 0.275401 20 0.40246 20 0.635399V17.3577C19.9933 17.5977 19.72 17.7177 19.56 17.5483V17.5553Z" fill="#448FFF"/>
</svg>
