<svg width="22" height="16" viewBox="0 0 22 16" fill="none" xmlns="http://www.w3.org/2000/svg">
<path d="M14.9286 11.2C14.7202 11.2 14.5203 11.2843 14.373 11.4343C14.2256 11.5843 14.1429 11.7878 14.1429 12C14.1429 12.2122 14.2256 12.4157 14.373 12.5657C14.5203 12.7157 14.7202 12.8 14.9286 12.8H18.0714C18.2798 12.8 18.4797 12.7157 18.627 12.5657C18.7744 12.4157 18.8571 12.2122 18.8571 12C18.8571 11.7878 18.7744 11.5843 18.627 11.4343C18.4797 11.2843 18.2798 11.2 18.0714 11.2H14.9286ZM0 4C0 2.93913 0.413902 1.92172 1.15065 1.17157C1.8874 0.421427 2.88665 0 3.92857 0H18.0714C19.1133 0 20.1126 0.421427 20.8493 1.17157C21.5861 1.92172 22 2.93913 22 4V12C22 13.0609 21.5861 14.0783 20.8493 14.8284C20.1126 15.5786 19.1133 16 18.0714 16H3.92857C2.88665 16 1.8874 15.5786 1.15065 14.8284C0.413902 14.0783 0 13.0609 0 12V4ZM20.4286 4.8V4C20.4286 3.36348 20.1802 2.75303 19.7382 2.30294C19.2961 1.85286 18.6966 1.6 18.0714 1.6H3.92857C3.30342 1.6 2.70387 1.85286 2.26182 2.30294C1.81977 2.75303 1.57143 3.36348 1.57143 4V4.8H20.4286ZM1.57143 6.4V12C1.57143 12.6365 1.81977 13.247 2.26182 13.6971C2.70387 14.1471 3.30342 14.4 3.92857 14.4H18.0714C18.6966 14.4 19.2961 14.1471 19.7382 13.6971C20.1802 13.247 20.4286 12.6365 20.4286 12V6.4H1.57143Z" fill="black"/>
</svg>
