<svg width="44" height="40" viewBox="0 0 44 40" fill="none" xmlns="http://www.w3.org/2000/svg">
<g clip-path="url(#clip0_1487_2767)">
<path d="M30.3592 8.17997C29.0528 6.70747 26.6915 6.07617 23.6706 6.07617H14.9031C14.6042 6.07618 14.3151 6.18164 14.0878 6.37358C13.8605 6.56552 13.7099 6.83136 13.663 7.1233L10.0124 30.0209C9.93984 30.4724 10.2934 30.8813 10.7561 30.8813H16.1689L17.5282 22.3542L17.4861 22.6212C17.5829 22.0185 18.1042 21.5739 18.7214 21.5739H21.2935C26.3465 21.5739 30.303 19.5442 31.4587 13.6726C31.4931 13.499 31.5228 13.3299 31.5485 13.1648C31.4026 13.0884 31.4026 13.0884 31.5485 13.1648C31.8926 10.9946 31.5461 9.51739 30.3592 8.17997Z" fill="#27346A"/>
<path d="M19.5994 12.383C19.7473 12.3133 19.9092 12.2772 20.0731 12.2773H26.9467C27.7606 12.2773 28.5198 12.3297 29.2135 12.4401C29.4077 12.4708 29.6008 12.5073 29.7926 12.5497C30.0645 12.6091 30.3333 12.6817 30.5979 12.7673C30.939 12.88 31.2566 13.0112 31.5486 13.1648C31.8926 10.9938 31.5461 9.51739 30.3592 8.17997C29.0521 6.70747 26.6915 6.07617 23.6706 6.07617H14.9023C14.285 6.07617 13.7598 6.52065 13.663 7.1233L10.0124 30.0201C9.93984 30.4723 10.2934 30.8806 10.7554 30.8806H16.1689L18.9892 13.1934C19.0169 13.0195 19.0869 12.8549 19.1932 12.7138C19.2995 12.5726 19.4389 12.4591 19.5994 12.383Z" fill="#27346A"/>
<path d="M31.4591 13.6721C30.3033 19.5428 26.3469 21.5734 21.2939 21.5734H18.721C18.1037 21.5734 17.5824 22.018 17.4865 22.6207L15.7953 33.2232C15.7321 33.6183 16.0411 33.9764 16.4454 33.9764H21.0082C21.2696 33.9763 21.5224 33.884 21.7211 33.7161C21.9198 33.5482 22.0514 33.3157 22.0922 33.0603L22.1367 32.8304L22.9966 27.4403L23.0521 27.1424C23.0929 26.8871 23.2245 26.6546 23.4232 26.4867C23.6219 26.3188 23.8746 26.2265 24.136 26.2264H24.8189C29.2389 26.2264 32.6999 24.4505 33.7112 19.3145C34.1334 17.1681 33.915 15.3761 32.7982 14.1174C32.4595 13.7362 32.0388 13.4213 31.5488 13.1643C31.5223 13.3303 31.4935 13.4985 31.4591 13.6721Z" fill="#2790C3"/>
<path d="M30.3394 12.688C30.1592 12.6359 29.9773 12.5899 29.794 12.5498C29.602 12.5081 29.4089 12.4718 29.2149 12.441C28.5204 12.3298 27.7617 12.2773 26.9471 12.2773H20.0743C19.9103 12.277 19.7483 12.3134 19.6006 12.3839C19.44 12.4597 19.3004 12.5732 19.1941 12.7144C19.0877 12.8556 19.0178 13.0203 18.9903 13.1942L17.5295 22.3543L17.4873 22.6213C17.5834 22.0186 18.1046 21.574 18.722 21.574H21.2949C26.3478 21.574 30.3042 19.5443 31.46 13.6727C31.4944 13.4991 31.5233 13.3308 31.5498 13.1649C31.2571 13.0121 30.9403 12.8801 30.5992 12.7682C30.5131 12.74 30.4265 12.7132 30.3395 12.688" fill="#1F264F"/>
</g>
<defs>
<clipPath id="clip0_1487_2767">
<rect width="24" height="28" fill="white" transform="translate(10 6)"/>
</clipPath>
</defs>
</svg>
