<svg width="111" height="40" viewBox="0 0 111 40" fill="none" xmlns="http://www.w3.org/2000/svg">
<g clip-path="url(#clip0_1487_2775)">
<mask id="mask0_1487_2775" style="mask-type:luminance" maskUnits="userSpaceOnUse" x="10" y="10" width="92" height="18">
<path d="M101.507 10H10.9624V27.8666H101.507V10Z" fill="white"/>
</mask>
<g mask="url(#mask0_1487_2775)">
<path d="M29.5967 19.0753L23.1407 26.8717C22.8936 27.1694 22.5207 27.3433 22.1245 27.3433H14.2222L18.4862 22.1932L22.3599 17.5136C22.6069 17.216 22.9799 17.042 23.3761 17.042H28.5805C29.6691 17.042 30.275 18.2546 29.5967 19.0742V19.0753Z" fill="white"/>
<path d="M11.2475 18.268L17.7036 10.4716C17.9507 10.174 18.3236 10 18.7198 10H26.6233L22.3592 15.1501L18.4856 19.8298C18.2385 20.1273 17.8656 20.3014 17.4694 20.3014H12.2637C11.1753 20.3014 10.5693 19.0888 11.2475 18.2692V18.268Z" fill="white"/>
<path d="M41.7662 24.3199H39.9064C39.798 24.3199 39.7024 24.2547 39.664 24.1582L38.043 19.9759C38.0057 19.8782 37.909 19.8142 37.8006 19.8142H35.8778C35.7566 19.8142 35.6505 19.8962 35.6248 20.0107L34.6985 24.1245C34.6728 24.239 34.5678 24.321 34.4455 24.321H32.7778C32.6124 24.321 32.4901 24.1739 32.525 24.0178L35.1728 12.4444C35.1984 12.3299 35.3044 12.249 35.4255 12.249H40.2525C41.2665 12.249 42.1427 12.5511 42.8827 13.154C43.6217 13.758 43.991 14.5541 43.991 15.5432C43.991 16.6413 43.6368 17.5698 42.9294 18.3299C42.2885 19.0182 41.4809 19.4549 40.5054 19.6379C40.3469 19.6683 40.256 19.8299 40.3167 19.9748L42.0041 23.9774C42.0729 24.1414 41.9482 24.3199 41.764 24.3199H41.7662ZM39.0883 17.9493H39.1257C39.9146 17.9493 40.538 17.7416 40.9948 17.325C41.4516 16.9085 41.6801 16.3808 41.6801 15.742C41.6801 15.2715 41.4983 14.8819 41.1358 14.5743C40.7723 14.2666 40.3469 14.1128 39.8587 14.1128H37.1923C37.0712 14.1128 36.9662 14.1937 36.9393 14.3082L36.1715 17.6473C36.1353 17.8033 36.2588 17.9504 36.4243 17.9504H39.0895L39.0883 17.9493Z" fill="#F43834"/>
<path d="M48.5755 24.5365C47.1596 24.5365 46.0419 24.1862 45.2228 23.4867C44.4023 22.7872 43.9922 21.834 43.9922 20.627C43.9922 19.1786 44.4898 17.9391 45.4849 16.9073C46.4802 15.8755 47.7108 15.3601 49.1757 15.3601C50.3655 15.3601 51.3292 15.7127 52.068 16.4189C52.807 17.1251 53.1763 18.0626 53.1763 19.2336C53.1763 19.6423 53.1355 20.0252 53.0552 20.3822C53.0295 20.4945 52.9235 20.5731 52.8034 20.5731H45.9815C45.9815 20.5855 45.9779 20.6304 45.9721 20.709C45.9652 20.7876 45.9628 20.8448 45.9628 20.8807C45.9628 21.4242 46.2064 21.9092 46.6958 22.3381C47.184 22.767 47.86 22.9803 48.7246 22.9803C49.5893 22.9803 50.2967 22.7939 50.9027 22.4223C51.0355 22.3403 51.2115 22.3909 51.2757 22.529L51.68 23.389C51.7313 23.4979 51.6963 23.6293 51.5925 23.6966C50.729 24.2569 49.7234 24.5365 48.5743 24.5365H48.5755ZM46.5222 19.2336H51.1532C51.2954 19.2336 51.412 19.1236 51.412 18.9878C51.412 18.9855 51.412 18.9833 51.412 18.981C51.412 18.3905 51.2057 17.8987 50.7921 17.5057C50.3782 17.1139 49.7898 16.9174 49.0265 16.9174C48.3249 16.9174 47.7084 17.1464 47.1759 17.6045C46.7389 17.9806 46.4394 18.414 46.2762 18.9036C46.2227 19.0664 46.3438 19.2336 46.521 19.2336H46.5222Z" fill="#F43834"/>
<path d="M59.2073 15.3611C59.8458 15.3611 60.4309 15.4913 60.9635 15.7507C61.3236 15.9258 61.6301 16.147 61.884 16.4131C62.0274 16.5636 62.2861 16.5029 62.3317 16.3031L62.4504 15.7754C62.4761 15.6609 62.581 15.5789 62.7034 15.5789H64.145C64.3104 15.5789 64.4327 15.726 64.3977 15.882L62.5017 24.1254C62.4749 24.2399 62.3701 24.3208 62.2488 24.3208H60.805C60.6395 24.3208 60.5172 24.1737 60.552 24.0187L60.5556 24.0053C60.6091 23.7706 60.3249 23.6112 60.1326 23.765C59.4869 24.2803 58.7457 24.5386 57.9103 24.5386C56.8579 24.5386 56.0153 24.2219 55.3837 23.5887C54.7509 22.9555 54.4351 22.0719 54.4351 20.9379C54.4351 20.0093 54.6168 19.1246 54.9805 18.2859C55.3441 17.4472 55.8977 16.7511 56.6435 16.1953C57.388 15.6407 58.2436 15.3622 59.2073 15.3622V15.3611ZM59.508 17.0441C58.6445 17.0441 57.9266 17.3944 57.3566 18.0939C56.7868 18.7934 56.5025 19.6141 56.5025 20.555C56.5025 21.2545 56.7087 21.8125 57.1224 22.229C57.5362 22.6456 58.0745 22.8533 58.7376 22.8533C59.2003 22.8533 59.642 22.7388 60.0614 22.5097C60.4635 22.2897 60.7992 22.009 61.0695 21.6677C61.0928 21.6385 61.1091 21.6037 61.1172 21.5677L61.8701 18.3387C61.8852 18.2735 61.8747 18.205 61.8375 18.15C61.6265 17.8402 61.3294 17.583 60.946 17.3787C60.5264 17.1553 60.0475 17.0441 59.5091 17.0441H59.508Z" fill="#F43834"/>
<path d="M66.7764 24.3198H65.3336C65.1681 24.3198 65.0458 24.1727 65.0807 24.0166L67.7284 12.4432C67.754 12.3286 67.86 12.2478 67.9813 12.2478H69.4241C69.5896 12.2478 69.7119 12.3949 69.6769 12.5509L67.0292 24.1244C67.0035 24.2389 66.8975 24.3198 66.7764 24.3198Z" fill="#F43834"/>
<path d="M71.5854 24.3198H69.9167C69.751 24.3198 69.6287 24.1727 69.6637 24.0166L72.3114 12.4432C72.3371 12.3286 72.4431 12.2478 72.5642 12.2478H77.3911C78.5555 12.2478 79.4667 12.5588 80.124 13.1797C80.7812 13.8017 81.1099 14.5764 81.1099 15.5049C81.1099 15.8912 81.0563 16.274 80.9503 16.6546C80.8442 17.0353 80.6647 17.4181 80.4153 17.8044C80.1647 18.1906 79.8547 18.5286 79.4854 18.8182C79.1159 19.1079 78.6404 19.3459 78.0577 19.5334C77.4751 19.7209 76.8214 19.8141 76.0953 19.8141H73.0339C72.9128 19.8141 72.8078 19.895 72.781 20.0095L71.8371 24.1255C71.8115 24.2401 71.7055 24.3209 71.5842 24.3209L71.5854 24.3198ZM73.309 17.6461C73.2728 17.8021 73.3963 17.9492 73.5619 17.9492H76.2456C77.0346 17.9492 77.6604 17.7348 78.1242 17.307C78.5869 16.8792 78.8188 16.3448 78.8188 15.7048C78.8188 15.2591 78.6498 14.8818 78.3119 14.5742C77.9738 14.2665 77.5474 14.1127 77.0346 14.1127H74.331C74.2098 14.1127 74.1048 14.1936 74.0782 14.3081L73.3102 17.6472L73.309 17.6461Z" fill="white"/>
<path d="M85.6946 15.3611C86.3331 15.3611 86.9182 15.4913 87.4508 15.7507C87.8109 15.9258 88.1174 16.147 88.3713 16.4131C88.5147 16.5636 88.7734 16.5029 88.8188 16.3031L88.9377 15.7754C88.9634 15.6609 89.0682 15.5789 89.1907 15.5789H90.6323C90.7977 15.5789 90.92 15.726 90.885 15.882L88.989 24.1254C88.9622 24.2399 88.8574 24.3208 88.7361 24.3208H87.2923C87.1268 24.3208 87.0043 24.1737 87.0393 24.0187L87.0429 24.0053C87.0964 23.7706 86.8122 23.6112 86.6199 23.765C85.9742 24.2803 85.233 24.5386 84.3976 24.5386C83.3452 24.5386 82.5026 24.2219 81.871 23.5887C81.2382 22.9555 80.9224 22.0719 80.9224 20.9379C80.9224 20.0093 81.1041 19.1246 81.4678 18.2859C81.8314 17.4472 82.385 16.7511 83.1308 16.1953C83.8754 15.6407 84.7309 15.3622 85.6946 15.3622V15.3611ZM85.9953 17.0441C85.1316 17.0441 84.4139 17.3944 83.8439 18.0939C83.2742 18.7934 82.9898 19.6141 82.9898 20.555C82.9898 21.2545 83.196 21.8125 83.6097 22.229C84.0235 22.6456 84.5618 22.8533 85.2249 22.8533C85.6876 22.8533 86.1293 22.7388 86.5487 22.5097C86.9508 22.2897 87.2865 22.009 87.5568 21.6677C87.5801 21.6385 87.5964 21.6037 87.6045 21.5677L88.3574 18.3387C88.3725 18.2735 88.362 18.205 88.3248 18.15C88.1138 17.8402 87.8167 17.583 87.4333 17.3787C87.0137 17.1553 86.5348 17.0441 85.9964 17.0441H85.9953Z" fill="white"/>
<path d="M90.4515 27.4176L90.9212 26.2285C90.9678 26.1118 91.0972 26.0422 91.2219 26.0736C91.414 26.123 91.6437 26.1477 91.9118 26.1477C92.3871 26.1477 92.795 25.9063 93.133 25.4235L93.7903 24.4568C93.8265 24.4029 93.8404 24.3389 93.8287 24.2761L92.2497 15.8721C92.2206 15.7195 92.3429 15.5791 92.5038 15.5791H94.0222C94.1492 15.5791 94.2564 15.6678 94.2773 15.7879L95.2551 21.4725C95.2947 21.7004 95.6059 21.7588 95.7306 21.5623L99.4632 15.6993C99.5099 15.6251 99.5938 15.5802 99.6835 15.5802H101.249C101.452 15.5802 101.576 15.7969 101.468 15.962L94.9556 25.8962C94.4919 26.5957 94.0104 27.0997 93.5095 27.4074C93.0083 27.7151 92.4127 27.8688 91.7252 27.8688C91.3186 27.8688 90.9526 27.8296 90.6287 27.7498C90.4795 27.7128 90.3978 27.5579 90.4527 27.4187L90.4515 27.4176Z" fill="white"/>
</g>
</g>
<defs>
<clipPath id="clip0_1487_2775">
<rect width="90.545" height="17.8666" fill="white" transform="translate(10.9624 10)"/>
</clipPath>
</defs>
</svg>
