<svg width="29" height="29" viewBox="0 0 29 29" fill="none" xmlns="http://www.w3.org/2000/svg">
<path fill-rule="evenodd" clip-rule="evenodd" d="M12.0138 21.4999C6.8591 21.4999 2.68042 17.3212 2.68042 12.1666C2.68042 7.01193 6.8591 2.83325 12.0138 2.83325C17.1684 2.83325 21.3471 7.01193 21.3471 12.1666C21.3471 14.3234 20.6155 16.3094 19.3869 17.8898L25.672 24.175L24.0221 25.8249L17.737 19.5398C16.1565 20.7683 14.1706 21.4999 12.0138 21.4999ZM19.0138 12.1666C19.0138 16.0326 15.8797 19.1666 12.0138 19.1666C8.14776 19.1666 5.01375 16.0326 5.01375 12.1666C5.01375 8.30059 8.14776 5.16659 12.0138 5.16659C15.8797 5.16659 19.0138 8.30059 19.0138 12.1666Z" fill="#6C6C6C"/>
</svg>
