<svg width="18" height="22" viewBox="0 0 18 22" fill="none" xmlns="http://www.w3.org/2000/svg">
<path d="M9 0L0 3.14286V12.5714C0 17.7792 4.02891 22 9 22C13.9711 22 18 17.7792 18 12.5714V3.14286L9 0ZM16.3125 12.5714C16.3125 16.802 13.0383 20.2321 9 20.2321C4.96172 20.2321 1.6875 16.802 1.6875 12.5714V4.46875L9 1.76786L16.3125 4.46875V12.5714Z" fill="black"/>
<path d="M5.86875 10.094C5.79055 10.0117 5.6976 9.94637 5.59523 9.9018C5.49287 9.85724 5.38311 9.8343 5.27227 9.8343C5.16142 9.8343 5.05166 9.85724 4.9493 9.9018C4.84694 9.94637 4.75398 10.0117 4.67578 10.094C4.59722 10.1759 4.53488 10.2733 4.49235 10.3805C4.44981 10.4878 4.42791 10.6027 4.42791 10.7189C4.42791 10.835 4.44981 10.95 4.49235 11.0572C4.53488 11.1644 4.59722 11.2618 4.67578 11.3438L7.75781 14.5725C7.83179 14.6502 7.91965 14.7118 8.01637 14.7538C8.11309 14.7958 8.21677 14.8175 8.32148 14.8175C8.4262 14.8175 8.52988 14.7958 8.6266 14.7538C8.72332 14.7118 8.81118 14.6502 8.88516 14.5725L14.1234 9.08482C14.1975 9.00733 14.2563 8.91528 14.2965 8.81395C14.3366 8.71263 14.3572 8.60401 14.3572 8.49431C14.3572 8.38461 14.3366 8.27599 14.2965 8.17466C14.2563 8.07333 14.1975 7.98129 14.1234 7.90379L14.0578 7.83504C13.9838 7.7574 13.896 7.69581 13.7993 7.65378C13.7025 7.61175 13.5989 7.59012 13.4941 7.59012C13.3894 7.59012 13.2857 7.61175 13.189 7.65378C13.0923 7.69581 13.0044 7.7574 12.9305 7.83504L8.32031 12.6623L5.86875 10.094Z" fill="black"/>
</svg>
