<svg width="32" height="20" viewBox="0 0 32 20" fill="none" xmlns="http://www.w3.org/2000/svg">
<path d="M7 19C10.3137 19 13 16.3137 13 13C13 9.68629 10.3137 7 7 7C3.68629 7 1 9.68629 1 13C1 16.3137 3.68629 19 7 19Z" stroke="black" stroke-width="2" stroke-linecap="round" stroke-linejoin="round"/>
<path d="M25 19C28.3137 19 31 16.3137 31 13C31 9.68629 28.3137 7 25 7C21.6863 7 19 9.68629 19 13C19 16.3137 21.6863 19 25 19Z" stroke="black" stroke-width="2" stroke-linecap="round" stroke-linejoin="round"/>
<path d="M13 13L13.3165 12.841C14.1497 12.4244 15.0684 12.2075 16 12.2075C16.9316 12.2075 17.8503 12.4244 18.6835 12.841L19 13M26.5 1L30.757 10.9345C30.9172 11.308 30.9999 11.7101 31 12.1165V13M5.5 1L1.243 10.9345C1.08298 11.3075 1.00031 11.7091 1 12.115V13" stroke="black" stroke-width="2" stroke-linecap="round" stroke-linejoin="round"/>
</svg>
