<svg width="14" height="15" viewBox="0 0 14 15" fill="none" xmlns="http://www.w3.org/2000/svg">
<path d="M12.1182 12.338V12.3378V10.7161C12.1182 10.5137 12.2063 10.3235 12.3563 10.1863C12.5057 10.0496 12.7048 9.97554 12.9091 9.97554C13.1134 9.97554 13.3125 10.0496 13.4619 10.1863C13.6119 10.3235 13.7 10.5137 13.7 10.7161V12.3378C13.7 12.9701 13.4253 13.5725 12.9432 14.0139C12.4616 14.4546 11.8119 14.6997 11.1376 14.7H11.1375H2.85891H2.85882C2.52476 14.6998 2.19366 14.6395 1.88429 14.522C1.57491 14.4045 1.29278 14.232 1.05444 14.0136C0.816068 13.7951 0.626056 13.5347 0.49622 13.247C0.366379 12.9592 0.299513 12.6501 0.300003 12.3376M12.1182 12.338L0.500003 12.3378M12.1182 12.338C12.1183 12.451 12.0941 12.5635 12.0464 12.6691L12.2287 12.7514M12.1182 12.338L12.2287 12.7514M0.300003 12.3376C0.300003 12.3376 0.300003 12.3375 0.300003 12.3374L0.500003 12.3378M0.300003 12.3376V12.3378H0.500003M0.300003 12.3376V10.7161C0.300003 10.5137 0.388075 10.3235 0.538082 10.1863C0.687493 10.0496 0.886614 9.97554 1.09091 9.97554C1.29521 9.97554 1.49433 10.0496 1.64374 10.1863C1.79375 10.3235 1.88182 10.5137 1.88182 10.7161V12.3378C1.88182 12.8104 2.30277 13.2189 2.85891 13.2189H11.1375C11.2688 13.2189 11.3983 13.1952 11.5187 13.1496C11.6391 13.1039 11.7474 13.0374 11.8377 12.9547C11.9281 12.8719 11.9987 12.7747 12.0464 12.6691L12.2287 12.7514M0.500003 12.3378V10.7161C0.500003 10.5727 0.562259 10.4352 0.673076 10.3339C0.783893 10.2325 0.934193 10.1755 1.09091 10.1755C1.24763 10.1755 1.39793 10.2325 1.50875 10.3339C1.61956 10.4352 1.68182 10.5727 1.68182 10.7161V12.3378C1.68182 12.9367 2.20891 13.4189 2.85891 13.4189H11.1375C11.2927 13.4189 11.4463 13.3909 11.5896 13.3366C11.7329 13.2822 11.8632 13.2026 11.9728 13.1022C12.0824 13.0018 12.1694 12.8826 12.2287 12.7514M7.51081 0.49471L7.51072 0.494627C7.37243 0.368272 7.18848 0.3 7 0.3C6.81153 0.3 6.62758 0.368272 6.48928 0.494627L6.48919 0.49471L2.94611 3.73588C2.87494 3.7972 2.81669 3.87181 2.7757 3.95597C2.73412 4.04133 2.71141 4.13427 2.70958 4.22911C2.70775 4.32395 2.72687 4.4177 2.76521 4.50454C2.80353 4.59132 2.86 4.66887 2.93024 4.73313L3.06523 4.58556L2.93024 4.73313C3.00043 4.79735 3.08307 4.8471 3.17279 4.88025C3.26249 4.91339 3.35804 4.9295 3.45389 4.92795C3.54974 4.9264 3.6447 4.90722 3.73322 4.87114C3.82057 4.83554 3.90044 4.78396 3.96774 4.7186L6.26818 2.61418V9.63499C6.26818 9.8231 6.35003 9.99948 6.48896 10.1266C6.62729 10.2531 6.81138 10.3215 7 10.3215C7.18863 10.3215 7.37272 10.2531 7.51105 10.1266C7.64997 9.99948 7.73182 9.8231 7.73182 9.63499V2.61418L10.0323 4.7186C10.0996 4.78396 10.1794 4.83554 10.2668 4.87114C10.3553 4.90722 10.4503 4.9264 10.5461 4.92795C10.642 4.9295 10.7375 4.91339 10.8272 4.88025C10.9169 4.8471 10.9996 4.79735 11.0698 4.73313C11.14 4.66887 11.1965 4.59132 11.2348 4.50454C11.2731 4.4177 11.2922 4.32396 11.2904 4.22911C11.2886 4.13427 11.2659 4.04133 11.2243 3.95597C11.1833 3.87181 11.1251 3.7972 11.0539 3.73588L7.51081 0.49471Z" fill="#1E75F8" stroke="#1E75F8" stroke-width="0.4"/>
</svg>
