<svg width="32" height="24" viewBox="0 0 32 24" fill="none" xmlns="http://www.w3.org/2000/svg">
<path fill-rule="evenodd" clip-rule="evenodd" d="M14.5169 0.159452C12.6667 0.778696 11.7076 2.24693 11.4561 4.84474C11.4143 5.27574 11.3073 5.70654 11.1932 5.90352C10.888 6.42983 11.0703 7.18033 11.706 8.01503C11.8516 8.20615 12.0835 8.59366 12.2215 8.87613C12.6748 9.80465 13.1876 10.537 13.8477 11.1983C14.6123 11.9644 15.3652 12.3836 15.9764 12.3836C17.1547 12.3836 18.766 10.9263 19.7087 9.00788C19.8831 8.65294 20.1319 8.23365 20.2615 8.07619C20.8949 7.30662 21.1038 6.45118 20.8015 5.8643C20.6884 5.64488 20.5592 5.09722 20.497 4.57299C20.271 2.67168 19.6623 1.45721 18.5539 0.696388C17.754 0.147439 17.4286 0.0547059 16.1463 0.0103252C15.2876 -0.0193611 14.962 0.0104248 14.5169 0.159452ZM5.78849 4.12809C5.51122 4.22559 5.12976 4.42546 4.94078 4.5721C4.46029 4.94502 4.0279 5.89359 3.89161 6.87324C3.83083 7.3101 3.74254 7.70992 3.69541 7.76185C3.49298 7.98474 3.61776 8.56288 4.01658 9.25014C4.24029 9.63566 4.51395 10.1075 4.62468 10.2986C4.73532 10.4897 4.97551 10.8148 5.15834 11.021C5.34117 11.2272 5.47366 11.4112 5.45268 11.4298C5.41473 11.4634 2.6959 12.1074 2.04878 12.236C1.62946 12.3193 1.3159 12.5142 1.13024 12.8069C1.00224 13.0087 0 17.2456 0 17.5848C0 17.6782 0.323317 17.8382 0.921756 18.0412C1.42868 18.213 1.95102 18.4397 2.08234 18.5449C2.47239 18.8571 3.20966 19.1382 4.18283 19.3457C4.68576 19.4529 5.10898 19.5276 5.12332 19.5116C5.13756 19.4956 5.4439 18.1645 5.8041 16.5536C6.16429 14.9427 6.52595 13.513 6.6079 13.3764C7.06117 12.6216 7.60146 12.2772 8.63415 12.085C9.77112 11.8735 9.79688 11.8312 8.908 11.635L8.10878 11.4586L8.42019 11.0864C8.59151 10.8818 8.88088 10.4532 9.06332 10.1341C9.24566 9.81507 9.51639 9.37315 9.66488 9.15214C10.0132 8.63387 10.1186 8.08959 9.92868 7.79124C9.85063 7.66862 9.75902 7.29391 9.72527 6.95853C9.69141 6.62314 9.56898 6.087 9.45327 5.7671C8.92371 4.30393 7.32351 3.58828 5.78849 4.12809ZM24.1482 4.11519C23.1078 4.48036 22.3848 5.59663 22.2669 7.01989C22.2377 7.37354 22.1546 7.72293 22.0824 7.7964C21.8922 7.99001 21.9208 8.31209 22.1707 8.78886C22.7396 9.87395 23.171 10.585 23.5141 11.003L23.8886 11.4592L23.115 11.6284C22.6896 11.7215 22.3415 11.8146 22.3415 11.8353C22.3415 11.8561 22.594 11.9238 22.9024 11.9858C24.0777 12.2217 24.4971 12.3882 24.9235 12.7882C25.1549 13.0053 25.392 13.3046 25.4504 13.4534C25.536 13.6714 26.5086 17.8858 26.7795 19.2124C26.8432 19.5244 26.8609 19.5353 27.2035 19.4757C28.5406 19.2429 29.5079 18.9099 29.9013 18.547C30.0092 18.4474 30.5256 18.2225 31.0488 18.0472C31.7097 17.8259 32 17.6816 32 17.5743C32 17.4895 31.8062 16.5661 31.5695 15.5224C31.3327 14.4786 31.1095 13.4784 31.0734 13.2996C30.9768 12.8202 30.6045 12.4277 30.1246 12.2991C29.8951 12.2375 29.0049 12.0244 28.1463 11.8254C27.2878 11.6263 26.5682 11.4483 26.5473 11.4298C26.5263 11.4112 26.6588 11.2272 26.8417 11.021C27.0245 10.8148 27.2647 10.4897 27.3753 10.2986C27.486 10.1075 27.7597 9.63566 27.9834 9.25014C28.3822 8.56288 28.507 7.98474 28.3046 7.76185C28.2575 7.70992 28.169 7.31506 28.108 6.88426C27.915 5.52058 27.4367 4.7113 26.5681 4.27891C25.8776 3.93508 24.8579 3.86608 24.1482 4.11519ZM10.6452 12.3428C7.08898 13.0541 7.27083 12.9082 6.69493 15.5111C6.50166 16.3848 6.14488 17.9889 5.90205 19.0757C5.65932 20.1625 5.47532 21.0666 5.49317 21.0848C5.51102 21.103 6.18117 21.351 6.98234 21.6359C7.87541 21.9534 8.59444 22.2744 8.84078 22.4654C10.059 23.4101 12.8299 24 16.0488 24C19.2304 24 21.9344 23.4151 23.1653 22.4607C23.4047 22.2751 24.1365 21.9493 25.0177 21.6359C25.8188 21.351 26.4892 21.1027 26.5073 21.0843C26.5256 21.0658 26.362 20.251 26.144 19.2737C25.926 18.2964 25.5689 16.6926 25.3505 15.7097C25.1322 14.7267 24.8927 13.802 24.8183 13.6546C24.6299 13.281 24.1287 12.9268 23.6098 12.8003C22.7899 12.6005 18.4172 11.7787 18.3306 11.8082C18.2833 11.8243 18.5743 12.057 18.9775 12.3254C19.5902 12.7333 19.7007 12.8473 19.6512 13.0204C19.5819 13.2638 18.5621 16.5378 17.8704 18.7379C17.6044 19.5843 17.3607 20.2098 17.3289 20.1279C17.2328 19.8801 16.0976 15.0572 16.0976 14.8967C16.0976 14.8147 16.3413 14.3875 16.6391 13.9473C16.9371 13.5073 17.1895 13.1061 17.2001 13.0559C17.2108 13.0056 16.9529 12.8646 16.6269 12.7425L16.0343 12.5205L15.4074 12.7376C15.0626 12.8571 14.7909 13.0033 14.8037 13.0626C14.8164 13.1219 15.0689 13.518 15.3647 13.943C15.6604 14.3678 15.903 14.7827 15.9038 14.865C15.9059 15.0867 14.7198 20.0662 14.645 20.15C14.5969 20.2038 12.4781 13.6469 12.3121 12.9302C12.2959 12.8604 12.4496 12.6996 12.6536 12.5728C12.8575 12.4461 13.1956 12.2177 13.4049 12.0652C13.7435 11.8184 13.7596 11.789 13.5512 11.7981C13.4224 11.8037 12.1147 12.0488 10.6452 12.3428Z" fill="#040404"/>
</svg>
