<svg width="18" height="21" viewBox="0 0 18 21" fill="none" xmlns="http://www.w3.org/2000/svg">
<path d="M14.5714 12C15.2534 12 15.9075 12.2709 16.3897 12.7532C16.8719 13.2354 17.1429 13.8894 17.1429 14.5714V15.1843C17.1429 18.2503 13.5343 20.5714 8.57143 20.5714C3.60857 20.5714 0 18.3711 0 15.1843V14.5714C0 13.8894 0.270918 13.2354 0.753154 12.7532C1.23539 12.2709 1.88944 12 2.57143 12H14.5714ZM8.57143 0C9.2468 -1.00638e-08 9.91555 0.133024 10.5395 0.391477C11.1635 0.649929 11.7304 1.02875 12.208 1.50631C12.6855 1.98387 13.0644 2.55081 13.3228 3.17477C13.5813 3.79873 13.7143 4.46749 13.7143 5.14286C13.7143 5.81823 13.5813 6.48698 13.3228 7.11094C13.0644 7.7349 12.6855 8.30185 12.208 8.77941C11.7304 9.25696 11.1635 9.63578 10.5395 9.89424C9.91555 10.1527 9.2468 10.2857 8.57143 10.2857C7.20746 10.2857 5.89935 9.74388 4.93488 8.77941C3.97041 7.81493 3.42857 6.50683 3.42857 5.14286C3.42857 3.77889 3.97041 2.47078 4.93488 1.50631C5.89935 0.541835 7.20746 2.03247e-08 8.57143 0Z" fill="black"/>
</svg>
