<svg width="22" height="19" viewBox="0 0 22 19" fill="none" xmlns="http://www.w3.org/2000/svg">
<path d="M18.6089 5.55522L18.6081 5.55438C18.2921 5.22571 17.8895 5.05789 17.4 5.05789H14.3V3.57895C14.3 3.09528 14.1299 2.69819 13.8062 2.38671C13.4907 2.06734 13.0889 1.9 12.6 1.9H9.4C8.91109 1.9 8.50933 2.06734 8.19375 2.38671C7.87007 2.69819 7.7 3.09528 7.7 3.57895V5.05789H4.6C4.11046 5.05789 3.70789 5.22571 3.39191 5.55438L3.39191 5.55438L3.39111 5.55522C3.0722 5.89478 2.9 6.27375 2.9 6.73684V15.4211C2.9 15.8841 3.0722 16.2631 3.3911 16.6027L3.39191 16.6035C3.70789 16.9322 4.11046 17.1 4.6 17.1H17.4C17.8895 17.1 18.2921 16.9322 18.6081 16.6035L18.6089 16.6027C18.9278 16.2631 19.1 15.8841 19.1 15.4211V6.73684C19.1 6.27375 18.9278 5.89478 18.6089 5.55522ZM17.3 15.3211H4.7V6.83684H17.3V15.3211ZM9.5 3.67895H12.5V5.05789H9.5V3.67895Z" fill="#872FF8" stroke="#872FF8" stroke-width="0.2"/>
</svg>
