<svg width="86" height="28" viewBox="0 0 86 28" fill="none" xmlns="http://www.w3.org/2000/svg">
<g clip-path="url(#clip0_2304_23251)">
<path d="M44.4771 9.09715C44.4281 12.8433 47.9248 14.9337 50.5589 16.1767C53.2652 17.4519 54.1743 18.2697 54.1635 19.4102C54.1434 21.1554 52.0048 21.9257 50.0036 21.9557C46.5122 22.008 44.4822 21.0429 42.8683 20.3129L41.6106 26.0118C43.2298 26.7343 46.228 27.3644 49.3371 27.3921C56.6354 27.3921 61.41 23.9036 61.4359 18.4948C61.4645 11.6303 51.6306 11.2503 51.6978 8.18208C51.7209 7.25172 52.6377 6.2589 54.6466 6.00646C55.641 5.87895 58.3859 5.78135 61.4981 7.16909L62.7195 1.65524C61.0459 1.06514 58.8949 0.50009 56.2168 0.50009C49.3475 0.50009 44.5161 4.03611 44.4771 9.09715ZM74.4565 0.975029C73.1238 0.975029 72.0008 1.72778 71.4996 2.88292L61.0744 26.9871H68.3673L69.8186 23.1033H78.7303L79.5722 26.9871H86L80.3908 0.975029H74.4565ZM75.4768 8.00186L77.5814 17.7697H71.8174L75.4768 8.00186ZM35.6349 0.975355L29.8863 26.9868H36.8359L42.5818 0.974705L35.6349 0.975355ZM25.3542 0.975355L18.1208 18.6799L15.1948 3.62591C14.8515 1.9454 13.4956 0.975029 11.9899 0.975029H0.165617L0 1.73038C2.42748 2.24045 5.18553 3.06314 6.85648 3.9434C7.87908 4.48113 8.17067 4.95119 8.50661 6.22897L14.0486 26.9871H21.3925L32.6518 0.975029L25.3542 0.975355Z" fill="url(#paint0_linear_2304_23251)"/>
</g>
<defs>
<linearGradient id="paint0_linear_2304_23251" x1="3953.76" y1="81.3374" x2="4029.14" y2="-2680.65" gradientUnits="userSpaceOnUse">
<stop stop-color="#222357"/>
<stop offset="1" stop-color="#254AA5"/>
</linearGradient>
<clipPath id="clip0_2304_23251">
<rect width="86" height="27" fill="white" transform="translate(0 0.5)"/>
</clipPath>
</defs>
</svg>
