<svg width="20" height="23" viewBox="0 0 20 23" fill="none" xmlns="http://www.w3.org/2000/svg">
    <path d="M19.773 16.5713C19.1948 15.5601 18.3353 12.6989 18.3353 8.9619C18.3353 6.71767 17.4572 4.56535 15.8941 2.97843C14.331 1.39152 12.211 0.5 10.0005 0.5C7.79 0.5 5.67002 1.39152 4.10695 2.97843C2.54387 4.56535 1.66575 6.71767 1.66575 8.9619C1.66575 12.7 0.805182 15.5601 0.226957 16.5713C0.0792965 16.8283 0.00101611 17.1204 9.82562e-06 17.418C-0.000996456 17.7156 0.0753071 18.0082 0.221225 18.2663C0.367144 18.5244 0.577517 18.7389 0.831129 18.8881C1.08474 19.0373 1.37263 19.116 1.66575 19.1162H5.91752C6.10982 20.0715 6.62121 20.93 7.3652 21.5466C8.1092 22.1632 9.04012 22.5 10.0005 22.5C10.9609 22.5 11.8918 22.1632 12.6358 21.5466C13.3798 20.93 13.8912 20.0715 14.0835 19.1162H18.3353C18.6283 19.1158 18.9161 19.037 19.1695 18.8877C19.423 18.7384 19.6332 18.5239 19.779 18.2658C19.9248 18.0078 20.001 17.7152 20 17.4177C19.9989 17.1202 19.9207 16.8283 19.773 16.5713ZM10.0005 20.8086C9.48358 20.8084 8.97939 20.6456 8.55735 20.3425C8.13532 20.0394 7.81618 19.611 7.64386 19.1162H12.3572C12.1849 19.611 11.8657 20.0394 11.4437 20.3425C11.0217 20.6456 10.5175 20.8084 10.0005 20.8086ZM1.66575 17.4238C2.46797 16.0234 3.3327 12.7782 3.3327 8.9619C3.3327 7.16651 4.0352 5.44466 5.28566 4.17513C6.53612 2.9056 8.23211 2.19238 10.0005 2.19238C11.7689 2.19238 13.4649 2.9056 14.7154 4.17513C15.9658 5.44466 16.6683 7.16651 16.6683 8.9619C16.6683 12.775 17.531 16.0202 18.3353 17.4238H1.66575Z" fill="black"/>
</svg>