<svg width="36" height="36" viewBox="0 0 36 36" fill="none" xmlns="http://www.w3.org/2000/svg">
    <path d="M4.9485 26.394C5.5965 28.392 7.566 29.667 9.6675 29.667H9.75C9.9428 30.608 10.4545 31.4535 11.1987 32.0608C11.9429 32.6681 12.874 32.9998 13.8345 33C14.52 33 15.1605 32.8275 15.7275 32.5305C15.9641 32.4007 16.161 32.2091 16.2971 31.976C16.4332 31.743 16.5033 31.4773 16.5 31.2075V4.54048C16.503 4.19683 16.3876 3.86262 16.1732 3.59407C15.9587 3.32553 15.6583 3.13904 15.3225 3.06598C14.57 2.91981 13.7902 3.02578 13.104 3.36748C11.988 3.90148 11.334 5.09398 11.334 6.33448V6.41698C10.4988 6.24652 9.63145 6.33629 8.84888 6.67418C8.06631 7.01208 7.40619 7.58184 6.95756 8.30663C6.50892 9.03141 6.29335 9.87635 6.33992 10.7275C6.38649 11.5786 6.69296 12.395 7.218 13.0665C6.04213 13.2507 4.97082 13.8492 4.19736 14.7538C3.42391 15.6585 2.99925 16.8098 3 18C3 19.767 3.9165 21.3165 5.2995 22.218C4.6545 23.3745 4.443 24.837 4.9485 26.394ZM28.782 13.0665C29.307 12.395 29.6135 11.5786 29.6601 10.7275C29.7067 9.87635 29.4911 9.03141 29.0424 8.30663C28.5938 7.58184 27.9337 7.01208 27.1511 6.67418C26.3686 6.33629 25.5012 6.24652 24.666 6.41698V6.33448C24.666 5.09548 24.0105 3.90148 22.8945 3.36748C22.2088 3.02568 21.4295 2.9197 20.6775 3.06598C20.3418 3.1393 20.0416 3.32586 19.8272 3.59434C19.6128 3.86283 19.4973 4.1969 19.5 4.54048V31.206C19.5 31.7535 19.788 32.274 20.274 32.529C20.841 32.8275 21.48 33 22.1655 33C23.1262 32.9998 24.0574 32.6678 24.8017 32.0602C25.5459 31.4527 26.0575 30.6067 26.25 29.6655H26.334C28.434 29.6655 30.405 28.3905 31.053 26.3925C31.5585 24.8355 31.347 23.373 30.702 22.2165C31.4065 21.7613 31.9859 21.137 32.3873 20.4005C32.7887 19.664 32.9993 18.8388 33 18C33.0008 16.8098 32.5761 15.6585 31.8026 14.7538C31.0292 13.8492 29.9579 13.2507 28.782 13.0665Z" fill="#2F80F8"/>
</svg>