<svg width="22" height="22" viewBox="0 0 22 22" fill="none" xmlns="http://www.w3.org/2000/svg">
    <path d="M17.6667 2.38462H15.6667V1.69231C15.6667 1.5087 15.5964 1.33261 15.4714 1.20277C15.3464 1.07294 15.1768 1 15 1C14.8232 1 14.6536 1.07294 14.5286 1.20277C14.4036 1.33261 14.3333 1.5087 14.3333 1.69231V2.38462H7.66667V1.69231C7.66667 1.5087 7.59643 1.33261 7.4714 1.20277C7.34638 1.07294 7.17681 1 7 1C6.82319 1 6.65362 1.07294 6.5286 1.20277C6.40357 1.33261 6.33333 1.5087 6.33333 1.69231V2.38462H4.33333C3.97971 2.38462 3.64057 2.53049 3.39052 2.79016C3.14048 3.04983 3 3.40201 3 3.76923V17.6154C3 17.9826 3.14048 18.3348 3.39052 18.5945C3.64057 18.8541 3.97971 19 4.33333 19H17.6667C18.0203 19 18.3594 18.8541 18.6095 18.5945C18.8595 18.3348 19 17.9826 19 17.6154V3.76923C19 3.40201 18.8595 3.04983 18.6095 2.79016C18.3594 2.53049 18.0203 2.38462 17.6667 2.38462ZM6.33333 3.76923V4.46154C6.33333 4.64515 6.40357 4.82124 6.5286 4.95107C6.65362 5.08091 6.82319 5.15385 7 5.15385C7.17681 5.15385 7.34638 5.08091 7.4714 4.95107C7.59643 4.82124 7.66667 4.64515 7.66667 4.46154V3.76923H14.3333V4.46154C14.3333 4.64515 14.4036 4.82124 14.5286 4.95107C14.6536 5.08091 14.8232 5.15385 15 5.15385C15.1768 5.15385 15.3464 5.08091 15.4714 4.95107C15.5964 4.82124 15.6667 4.64515 15.6667 4.46154V3.76923H17.6667V6.53846H4.33333V3.76923H6.33333ZM17.6667 17.6154H4.33333V7.92308H17.6667V17.6154ZM9.66667 10V15.5385C9.66667 15.7221 9.59643 15.8982 9.4714 16.028C9.34638 16.1578 9.17681 16.2308 9 16.2308C8.82319 16.2308 8.65362 16.1578 8.5286 16.028C8.40357 15.8982 8.33333 15.7221 8.33333 15.5385V11.1198L7.965 11.3119C7.80675 11.3941 7.62356 11.4076 7.45571 11.3495C7.28787 11.2914 7.14912 11.1664 7.07 11.0021C6.99088 10.8378 6.97786 10.6475 7.03381 10.4732C7.08975 10.2989 7.21009 10.1549 7.36833 10.0727L8.70167 9.38038C8.80334 9.32755 8.91634 9.3026 9.02993 9.30789C9.14351 9.31319 9.2539 9.34857 9.3506 9.41066C9.4473 9.47276 9.52711 9.5595 9.58243 9.66265C9.63775 9.7658 9.66675 9.88193 9.66667 10ZM14.5967 12.6351L13 14.8462H14.3333C14.5101 14.8462 14.6797 14.9191 14.8047 15.0489C14.9298 15.1788 15 15.3549 15 15.5385C15 15.7221 14.9298 15.8982 14.8047 16.028C14.6797 16.1578 14.5101 16.2308 14.3333 16.2308H11.6667C11.5429 16.2308 11.4215 16.195 11.3162 16.1274C11.2109 16.0598 11.1258 15.9631 11.0704 15.8481C11.015 15.7331 10.9916 15.6043 11.0027 15.4763C11.0138 15.3482 11.059 15.2259 11.1333 15.1231L13.5317 11.8026C13.5862 11.7272 13.6254 11.641 13.6467 11.5493C13.668 11.4576 13.671 11.3624 13.6556 11.2694C13.6402 11.1764 13.6067 11.0877 13.5571 11.0087C13.5075 10.9297 13.4429 10.862 13.3672 10.8099C13.2915 10.7578 13.2063 10.7222 13.1169 10.7055C13.0276 10.6887 12.9358 10.6911 12.8474 10.7126C12.7589 10.734 12.6756 10.7739 12.6025 10.8299C12.5295 10.886 12.4682 10.9569 12.4225 11.0385C12.38 11.1197 12.3223 11.1913 12.2527 11.249C12.1832 11.3067 12.1032 11.3493 12.0175 11.3744C11.9318 11.3995 11.8422 11.4065 11.7538 11.395C11.6655 11.3836 11.5803 11.3538 11.5032 11.3076C11.4261 11.2613 11.3587 11.1995 11.305 11.1258C11.2513 11.0521 11.2123 10.9679 11.1904 10.8783C11.1685 10.7887 11.1642 10.6955 11.1775 10.6041C11.1909 10.5127 11.2218 10.425 11.2683 10.3462C11.4886 9.9504 11.8283 9.64115 12.235 9.46632C12.6417 9.29149 13.0925 9.26086 13.5177 9.37917C13.9428 9.49748 14.3185 9.75812 14.5865 10.1207C14.8545 10.4833 14.9999 10.9275 15 11.3846C15.0014 11.8361 14.8597 12.2756 14.5967 12.6351Z" fill="#6C6C6C"/>
</svg>