<svg width="22" height="20" viewBox="0 0 22 20" fill="none" xmlns="http://www.w3.org/2000/svg">
    <path d="M10.6456 2.43374L10.6464 2.4345C10.9198 2.71404 11.3716 2.71475 11.6423 2.43637L11.6423 2.43636L11.6436 2.43506L11.6477 2.43087L11.7898 2.57159L11.6477 2.43087C12.1596 1.91397 12.7673 1.50384 13.4363 1.22398C14.1053 0.944129 14.8224 0.800064 15.5467 0.800064C16.2709 0.800064 16.9881 0.944129 17.6571 1.22398C18.3261 1.50384 18.9338 1.91397 19.4457 2.43087L19.7325 2.72052C20.7661 3.7644 21.3465 5.17979 21.3465 6.65521C21.3465 8.13063 20.7661 9.54602 19.7325 10.5899L12.1643 18.2328L11.3211 19.125L11.1757 18.9876L11.3211 19.125C11.2752 19.1736 11.2121 19.1958 11.1505 19.1915C11.0845 19.1998 11.0156 19.1776 10.9664 19.1253C10.9664 19.1253 10.9664 19.1252 10.9664 19.1252L10.1782 18.2854L2.55797 10.5898L2.55781 10.5896C1.52575 9.54495 0.946484 8.12993 0.946484 6.65508C0.946484 5.18024 1.52575 3.76522 2.55781 2.72056L2.55798 2.72038L2.84479 2.43078C3.35687 1.91364 3.96495 1.50337 4.63433 1.22351C5.30371 0.943655 6.02121 0.799726 6.74581 0.8C7.4704 0.800275 8.1878 0.944749 8.85697 1.22512C9.52614 1.50548 10.1339 1.91621 10.6456 2.43374ZM11.1453 18.9978L11.1553 18.9878L11.1453 18.9978ZM11.2765 19.1294L11.2764 19.1295C11.2764 19.1294 11.2765 19.1294 11.2765 19.1294ZM18.2222 3.66072L18.2222 3.66071C17.5127 2.94412 16.5508 2.54174 15.5482 2.54136C14.5458 2.54098 13.584 2.94238 12.8739 3.658C12.8737 3.65823 12.8735 3.65845 12.8732 3.65868L12.0082 4.54821C11.538 5.0317 10.7618 5.03287 10.2902 4.55081L9.4193 3.66071C9.41915 3.66056 9.41901 3.66041 9.41886 3.66026C9.06742 3.30546 8.65035 3.02411 8.19149 2.83217C7.73245 2.64014 7.24052 2.54134 6.74378 2.54134C6.24703 2.54134 5.75511 2.64014 5.29606 2.83217C4.83702 3.02419 4.41979 3.30569 4.06826 3.66071L4.06824 3.66072L3.7816 3.95015C3.07264 4.6678 2.67415 5.64055 2.67418 6.65511C2.67421 7.66967 3.07275 8.6424 3.78176 9.36001L10.5768 16.2224C10.8898 16.5385 11.4007 16.5385 11.7137 16.2224L18.5091 9.35985C19.2191 8.64284 19.6183 7.66995 19.6183 6.65511C19.6183 5.64027 19.2191 4.66738 18.5091 3.95037C18.5091 3.95037 18.5091 3.95036 18.5091 3.95036L18.2222 3.66072Z" fill="black" stroke-width="0.4"/>
</svg>