<svg xmlns="http://www.w3.org/2000/svg" width="17" height="28" viewBox="0 0 17 28" fill="none">
    <g clip-path="url(#clip0_727_6313)">
        <path d="M8.87937 12.3229C11.2067 12.8576 13.0534 13.6354 14.4195 14.6562C15.7855 15.6771 16.4686 17.1597 16.4686 19.1042C16.4686 20.6597 15.95 21.8993 14.9128 22.8229C13.8756 23.7465 12.5222 24.3542 10.8526 24.6458V28H5.99547V24.6458C4.27525 24.3056 2.87125 23.625 1.78346 22.6042C0.695677 21.5833 0.101189 20.2708 0 18.6667H3.56692C3.7693 20.8542 5.38833 21.9479 8.42401 21.9479C9.99245 21.9479 11.1055 21.6562 11.7633 21.0729C12.421 20.4896 12.7499 19.8576 12.7499 19.1771C12.7499 18.3507 12.4083 17.6215 11.7253 16.9896C11.0423 16.3576 9.76477 15.8229 7.89277 15.3854C2.8333 14.2187 0.303568 12.0799 0.303568 8.96875C0.303568 7.55903 0.834812 6.3559 1.8973 5.35938C2.95979 4.36285 4.32584 3.69444 5.99547 3.35417V0H10.8526V3.42708C12.4716 3.81597 13.7238 4.54514 14.6092 5.61458C15.4946 6.68403 15.9626 7.92361 16.0132 9.33333H12.4463C12.3451 7.14583 11.0043 6.05208 8.42401 6.05208C7.05796 6.05208 5.98282 6.31944 5.1986 6.85417C4.41439 7.38889 4.02228 8.09375 4.02228 8.96875C4.02228 9.69792 4.37644 10.3177 5.08476 10.8281C5.79309 11.3385 7.05796 11.8368 8.87937 12.3229Z" fill="#2F80F8"/>
    </g>
    <defs>
        <clipPath id="clip0_727_6313">
        <rect width="17" height="28" fill="white"/>
        </clipPath>
    </defs>
</svg>