<svg width="27" height="26" viewBox="0 0 27 26" fill="none" xmlns="http://www.w3.org/2000/svg">
    <path fill-rule="evenodd" clip-rule="evenodd" d="M7.06588 4.72681C7.3096 4.9706 7.4465 5.3012 7.4465 5.64591C7.4465 5.99063 7.3096 6.32123 7.06588 6.56501C6.22077 7.41004 5.55039 8.41326 5.09301 9.51738C4.63564 10.6215 4.40023 11.8049 4.40023 13C4.40023 14.1951 4.63564 15.3785 5.09301 16.4826C5.55039 17.5868 6.22077 18.59 7.06588 19.435C7.19005 19.5549 7.28908 19.6984 7.35721 19.857C7.42535 20.0156 7.46121 20.1862 7.46271 20.3588C7.46421 20.5314 7.43132 20.7026 7.36595 20.8624C7.30059 21.0221 7.20406 21.1673 7.082 21.2893C6.95994 21.4114 6.81479 21.5079 6.65502 21.5733C6.49526 21.6386 6.32407 21.6715 6.15146 21.67C5.97885 21.6685 5.80826 21.6327 5.64966 21.5645C5.49105 21.4964 5.3476 21.3974 5.22768 21.2732C4.14122 20.1868 3.27939 18.897 2.6914 17.4774C2.10342 16.0579 1.80078 14.5365 1.80078 13C1.80078 11.4635 2.10342 9.9421 2.6914 8.52258C3.27939 7.10307 4.14122 5.81326 5.22768 4.72681C5.47147 4.4831 5.80207 4.34619 6.14678 4.34619C6.4915 4.34619 6.8221 4.4831 7.06588 4.72681ZM19.9359 4.72681C20.1797 4.4831 20.5103 4.34619 20.855 4.34619C21.1997 4.34619 21.5303 4.4831 21.7741 4.72681C22.8605 5.81326 23.7224 7.10307 24.3104 8.52258C24.8984 9.9421 25.201 11.4635 25.201 13C25.201 14.5365 24.8984 16.0579 24.3104 17.4774C23.7224 18.897 22.8605 20.1868 21.7741 21.2732C21.6542 21.3974 21.5107 21.4964 21.3521 21.5645C21.1935 21.6327 21.0229 21.6685 20.8503 21.67C20.6777 21.6715 20.5065 21.6386 20.3467 21.5733C20.187 21.5079 20.0418 21.4114 19.9198 21.2893C19.7977 21.1673 19.7012 21.0221 19.6358 20.8624C19.5704 20.7026 19.5376 20.5314 19.5391 20.3588C19.5406 20.1862 19.5764 20.0156 19.6446 19.857C19.7127 19.6984 19.8117 19.5549 19.9359 19.435C20.781 18.59 21.4514 17.5868 21.9088 16.4826C22.3661 15.3785 22.6015 14.1951 22.6015 13C22.6015 11.8049 22.3661 10.6215 21.9088 9.51738C21.4514 8.41326 20.781 7.41004 19.9359 6.56501C19.6922 6.32123 19.5553 5.99063 19.5553 5.64591C19.5553 5.3012 19.6922 4.9706 19.9359 4.72681ZM10.7436 8.40321C10.9873 8.647 11.1242 8.9776 11.1242 9.32231C11.1242 9.66703 10.9873 9.99763 10.7436 10.2414C10.3814 10.6036 10.094 11.0335 9.898 11.5067C9.70196 11.98 9.60107 12.4872 9.60107 12.9994C9.60107 13.5116 9.70196 14.0188 9.898 14.492C10.094 14.9652 10.3814 15.3952 10.7436 15.7573C10.8643 15.8781 10.96 16.0215 11.0253 16.1792C11.0906 16.337 11.1242 16.5061 11.1241 16.6769C11.124 16.8476 11.0903 17.0167 11.0249 17.1744C10.9595 17.3322 10.8637 17.4755 10.7429 17.5962C10.6222 17.7169 10.4788 17.8126 10.321 17.8779C10.1632 17.9432 9.99413 17.9767 9.82337 17.9767C9.65262 17.9766 9.48355 17.9429 9.32582 17.8775C9.16809 17.8121 9.02478 17.7163 8.90408 17.5955C7.68552 16.3766 7.00097 14.7236 7.00097 13C7.00097 11.2764 7.68552 9.62344 8.90408 8.40451C9.02482 8.28364 9.16819 8.18776 9.32601 8.12234C9.48383 8.05691 9.65299 8.02324 9.82383 8.02324C9.99467 8.02324 10.1638 8.05691 10.3217 8.12234C10.4795 8.18776 10.6228 8.28234 10.7436 8.40321ZM16.2582 8.40321C16.3789 8.28234 16.5223 8.18646 16.6801 8.12104C16.8379 8.05561 17.0071 8.02194 17.1779 8.02194C17.3488 8.02194 17.5179 8.05561 17.6758 8.12104C17.8336 8.18646 17.9769 8.28234 18.0977 8.40321C18.7014 9.00682 19.1804 9.72345 19.5071 10.5122C19.8339 11.3009 20.0021 12.1463 20.0021 13C20.0021 13.8538 19.8339 14.6991 19.5071 15.4879C19.1804 16.2766 18.7014 16.9932 18.0977 17.5968C17.8538 17.8407 17.5229 17.9778 17.1779 17.9778C16.833 17.9778 16.5021 17.8407 16.2582 17.5968C16.0143 17.3529 15.8772 17.022 15.8772 16.6771C15.8772 16.3321 16.0143 16.0012 16.2582 15.7573C16.9893 15.026 17.4001 14.0342 17.4001 13C17.4001 11.9659 16.9893 10.9741 16.2582 10.2427C16.1373 10.122 16.0414 9.9786 15.976 9.82079C15.9106 9.66297 15.8769 9.4938 15.8769 9.32296C15.8769 9.15212 15.9106 8.98296 15.976 8.82514C16.0414 8.66732 16.1373 8.52395 16.2582 8.40321ZM13.5009 11.7C13.8457 11.7 14.1763 11.837 14.4201 12.0808C14.6639 12.3246 14.8009 12.6552 14.8009 13V13.013C14.8009 13.3578 14.6639 13.6885 14.4201 13.9323C14.1763 14.1761 13.8457 14.313 13.5009 14.313C13.1561 14.313 12.8254 14.1761 12.5816 13.9323C12.3378 13.6885 12.2009 13.3578 12.2009 13.013V13C12.2009 12.6552 12.3378 12.3246 12.5816 12.0808C12.8254 11.837 13.1561 11.7 13.5009 11.7Z" fill="#F3F3F3"/>
</svg>