<svg width="40" height="40" viewBox="0 0 40 40" fill="none" xmlns="http://www.w3.org/2000/svg">
    <path d="M36.5333 9.16989L32.7833 12.9199C32.6067 13.0969 32.397 13.2374 32.166 13.3332C31.9351 13.429 31.6875 13.4783 31.4375 13.4782H31.3083L27.8416 13.2407L19.8666 21.2074C19.7698 21.3042 19.6549 21.381 19.5283 21.4332C19.4017 21.4854 19.266 21.512 19.1291 21.5116C18.9928 21.5124 18.8576 21.4859 18.7317 21.4337C18.6057 21.3814 18.4915 21.3045 18.3958 21.2074C18.2988 21.1106 18.2218 20.9957 18.1693 20.8691C18.1168 20.7426 18.0898 20.6069 18.0898 20.4699C18.0898 20.3329 18.1168 20.1972 18.1693 20.0707C18.2218 19.9441 18.2988 19.8291 18.3958 19.7324L26.375 11.7532L26.1416 8.28239C26.1234 8.01158 26.163 7.73999 26.2578 7.48567C26.3526 7.23136 26.5005 7.00014 26.6916 6.80739L30.4416 3.05739C30.7001 2.79901 31.0275 2.62049 31.3847 2.54314C31.7419 2.46578 32.1139 2.49286 32.4561 2.62115C32.7983 2.74943 33.0964 2.97349 33.3147 3.26659C33.5331 3.55968 33.6625 3.90942 33.6875 4.27405L33.7875 5.80739L35.325 5.91155C35.6896 5.93653 36.0393 6.06591 36.3324 6.28426C36.6255 6.50261 36.8496 6.80069 36.9779 7.14292C37.1061 7.48516 37.1332 7.85708 37.0559 8.21428C36.9785 8.57149 36.8 8.89889 36.5416 9.15739L36.5333 9.16989ZM35.7 20.4741C35.709 24.0351 34.5727 27.5046 32.4587 30.3704C30.3448 33.2361 27.3654 35.3461 23.9604 36.3887C20.5555 37.4314 16.9054 37.3514 13.5494 36.1607C10.1933 34.97 7.30911 32.7316 5.32268 29.7761C3.33624 26.8206 2.35289 23.3046 2.51782 19.7474C2.68275 16.1902 3.98723 12.7803 6.23861 10.0212C8.49 7.2622 11.569 5.30029 15.0208 4.42522C18.4726 3.55015 22.1144 3.8083 25.4083 5.16155L25.2333 5.33655C24.8303 5.73816 24.5183 6.22169 24.3185 6.75437C24.1186 7.28706 24.0356 7.85648 24.075 8.42405L24.2458 10.9491L21.25 13.9366C19.7801 13.4594 18.1925 13.4909 16.7428 14.0262C15.2931 14.5615 14.0659 15.5693 13.259 16.8872C12.452 18.2051 12.1123 19.7563 12.2945 21.2909C12.4768 22.8254 13.1704 24.2539 14.2637 25.3461C15.3569 26.4383 16.786 27.1306 18.3207 27.3114C19.8555 27.4922 21.4064 27.1511 22.7235 26.3428C24.0406 25.5346 25.0473 24.3065 25.5812 22.8563C26.1151 21.4061 26.1452 19.8184 25.6666 18.3491L28.65 15.3699L31.15 15.5407H31.425C31.9488 15.5417 32.4677 15.4392 32.9518 15.239C33.4359 15.0387 33.8757 14.7448 34.2458 14.3741L34.4208 14.1949C35.251 16.1845 35.6814 18.3182 35.6875 20.4741H35.7ZM31.1666 20.4741C31.1666 20.1978 31.0569 19.9328 30.8615 19.7375C30.6662 19.5421 30.4012 19.4324 30.125 19.4324C29.8487 19.4324 29.5837 19.5421 29.3884 19.7375C29.193 19.9328 29.0833 20.1978 29.0833 20.4741C29.0841 22.44 28.5021 24.362 27.4107 25.9972C26.3193 27.6324 24.7677 28.9073 22.9519 29.6607C21.1361 30.4142 19.1377 30.6124 17.2092 30.2303C15.2808 29.8482 13.509 28.9029 12.1177 27.5139C10.7264 26.125 9.77816 24.3547 9.39281 22.4269C9.00746 20.4991 9.20231 18.5004 9.95274 16.6833C10.7032 14.8663 11.9755 13.3125 13.6088 12.2184C15.2421 11.1243 17.1632 10.539 19.1291 10.5366C19.4054 10.5366 19.6703 10.4268 19.8657 10.2315C20.061 10.0361 20.1708 9.77115 20.1708 9.49489C20.1708 9.21862 20.061 8.95367 19.8657 8.75832C19.6703 8.56297 19.4054 8.45322 19.1291 8.45322C16.7518 8.45404 14.4281 9.15975 12.4518 10.4811C10.4756 11.8025 8.93548 13.6802 8.02629 15.8768C7.1171 18.0734 6.87964 20.4902 7.34394 22.8218C7.80824 25.1533 8.95344 27.2948 10.6347 28.9755C12.3161 30.6563 14.458 31.8007 16.7897 32.2642C19.1214 32.7277 21.5381 32.4894 23.7344 31.5795C25.9307 30.6695 27.8078 29.1288 29.1285 27.152C30.4492 25.1753 31.1541 22.8514 31.1541 20.4741H31.1666ZM19.1291 23.5949C18.5111 23.5952 17.9069 23.4122 17.3928 23.0691C16.8788 22.726 16.478 22.2382 16.2412 21.6673C16.0044 21.0965 15.9422 20.4682 16.0624 19.862C16.1826 19.2558 16.4799 18.6988 16.9166 18.2616L19.4833 15.6949C19.3625 15.6949 19.2458 15.6949 19.125 15.6949C18.1759 15.6957 17.2484 15.9781 16.4599 16.5063C15.6715 17.0345 15.0574 17.7848 14.6956 18.6622C14.3337 19.5396 14.2403 20.5046 14.4272 21.435C14.6141 22.3655 15.0728 23.2196 15.7454 23.8893C16.4179 24.5589 17.274 25.0139 18.2053 25.1967C19.1366 25.3796 20.1012 25.282 20.9769 24.9163C21.8527 24.5506 22.6003 23.9333 23.1251 23.1426C23.6499 22.3518 23.9282 21.4231 23.925 20.4741C23.925 20.3532 23.925 20.2324 23.925 20.1116L21.3416 22.6866C21.0508 22.9762 20.7056 23.2055 20.326 23.3614C19.9463 23.5173 19.5396 23.5966 19.1291 23.5949Z" fill="#2F80F8"/>
</svg>